<svg xmlns="http://www.w3.org/2000/svg" viewBox="0 0 30.923 30.982">
  <defs>
    <style>
      .cls-1 {
        fill: #fff;
      }

      .cls-1, .cls-6 {
        stroke: #43525b;
      }

      .cls-1, .cls-2, .cls-3, .cls-5, .cls-6 {
        stroke-miterlimit: 10;
      }

      .cls-2 {
        fill: #e97956;
        stroke: #801831;
        stroke-width: 0.9px;
      }

      .cls-2, .cls-3, .cls-6 {
        stroke-linejoin: round;
      }

      .cls-3 {
        fill: #c69c6d;
        stroke: #754c24;
      }

      .cls-3, .cls-5 {
        stroke-width: 0.5px;
      }

      .cls-4 {
        fill: #754c24;
      }

      .cls-5 {
        fill: #69b2f1;
        stroke: #0071bc;
      }

      .cls-6 {
        fill: none;
      }
    </style>
  </defs>
  <g id="dashboard" transform="translate(-0.262 -5.75)">
    <path id="Path_53" data-name="Path 53" class="cls-1" d="M27.659,17H5.5a1.966,1.966,0,0,0-2,2v18.82a2.008,2.008,0,0,0,2,2H27.659a2.008,2.008,0,0,0,2-2V19a1.966,1.966,0,0,0-2-2Z" transform="translate(-0.923 -3.592)"/>
    <path id="Path_54" data-name="Path 54" class="cls-2" d="M30.607,17.145,25.067,7.268A1.405,1.405,0,0,0,23.733,6.2H7.715A1.535,1.535,0,0,0,6.381,7.268L.841,17.145c-.4,1.135.267,2.469,1.335,2.469h27.1C30.34,19.614,31.007,18.28,30.607,17.145Z" transform="translate(0 0)"/>
    <g id="Group_11" data-name="Group 11" transform="translate(6.313 24.819)">
      <path id="Path_55" data-name="Path 55" class="cls-3" d="M16.708,45.512H9.1V34.433a.315.315,0,0,1,.334-.334h6.941a.315.315,0,0,1,.334.334Z" transform="translate(-9.099 -34.099)"/>
      <path id="Path_56" data-name="Path 56" class="cls-4" d="M11.7,42.7a.6.6,0,1,1-.6-.6.6.6,0,0,1,.6.6" transform="translate(-9.565 -36.76)"/>
    </g>
    <g id="Group_12" data-name="Group 12" transform="translate(17.259 24.82)">
      <path id="Path_57" data-name="Path 57" class="cls-5" d="M32.14,41.608H26.468a.884.884,0,0,1-.868-.868V35.068a.884.884,0,0,1,.868-.868H32.14a.884.884,0,0,1,.868.868V40.74a.884.884,0,0,1-.868.868Z" transform="translate(-25.533 -34.133)"/>
      <line id="Line_11" data-name="Line 11" class="cls-5" y2="7.475" transform="translate(3.737 0)"/>
      <line id="Line_12" data-name="Line 12" class="cls-5" x2="7.475" transform="translate(0 3.737)"/>
    </g>
    <line id="Line_13" data-name="Line 13" class="cls-6" x1="11.078" transform="translate(4.579 36.232)"/>
  </g>
</svg>
