<svg xmlns="http://www.w3.org/2000/svg" viewBox="0 0 123.744 164.1">
  <defs>
    <style>
      .cls-1 {
        fill: #ffdc64;
      }

      .cls-2 {
        fill: #0bf;
      }

      .cls-3, .cls-4, .cls-5 {
        fill: none;
        stroke-linecap: round;
        stroke-linejoin: round;
        stroke-miterlimit: 10;
      }

      .cls-3, .cls-5 {
        stroke: #233158;
      }

      .cls-3, .cls-4 {
        stroke-width: 2px;
      }

      .cls-4 {
        stroke: #fff;
      }
    </style>
  </defs>
  <g id="monprojet" transform="translate(-61.128 -40.3)">
    <path id="XMLID_19_" class="cls-1" d="M167.1,111a41.017,41.017,0,1,0-73.4,25.1,54.083,54.083,0,0,1,11,33.2V171h42.8v-1.7a57.593,57.593,0,0,1,11.7-34.1A40.526,40.526,0,0,0,167.1,111Z"/>
    <path id="XMLID_18_" class="cls-2" d="M146.2,182H105.8a5.484,5.484,0,0,1-5.5-5.5h0a5.484,5.484,0,0,1,5.5-5.5h40.4a5.484,5.484,0,0,1,5.5,5.5h0A5.549,5.549,0,0,1,146.2,182Z"/>
    <path id="XMLID_17_" class="cls-2" d="M143.2,192.8H108.7a5.015,5.015,0,0,1-5-5v-.6a5.015,5.015,0,0,1,5-5h34.5a5.015,5.015,0,0,1,5,5v.6a4.951,4.951,0,0,1-5,5Z"/>
    <path id="XMLID_16_" class="cls-2" d="M111.8,195.4v.1a8.066,8.066,0,0,0,8.1,8.1h12.2a8.066,8.066,0,0,0,8.1-8.1v-.1a2.647,2.647,0,0,0-2.6-2.6H114.4a2.647,2.647,0,0,0-2.6,2.6Z"/>
    <path id="XMLID_15_" class="cls-3" d="M164,107.9A41.017,41.017,0,1,0,90.6,133a54.083,54.083,0,0,1,11,33.2v1.7h42.8v-1.7a57.593,57.593,0,0,1,11.7-34.1,40.749,40.749,0,0,0,7.9-24.2Z" transform="translate(2 3)"/>
    <path id="XMLID_14_" class="cls-3" d="M140.1,189.6H105.6a5.015,5.015,0,0,1-5-5V184a5.015,5.015,0,0,1,5-5h34.5a5.015,5.015,0,0,1,5,5v.6a4.951,4.951,0,0,1-5,5Z" transform="translate(2 3)"/>
    <path id="XMLID_13_" class="cls-3" d="M108.6,192.2v.1a8.066,8.066,0,0,0,8.1,8.1h12.2a8.066,8.066,0,0,0,8.1-8.1v-.1a2.647,2.647,0,0,0-2.6-2.6H111.2a2.647,2.647,0,0,0-2.6,2.6Z" transform="translate(2 3)"/>
    <path id="XMLID_11_" class="cls-4" d="M132.1,130,123,167.1,114,130" transform="translate(2)"/>
    <path id="XMLID_10_" class="cls-4" d="M106.7,125.5c4.1,0,4.1,3.4,8.1,3.4,4.1,0,4.1-3.4,8.1-3.4,4.1,0,4.1,3.4,8.1,3.4,4.1,0,4.1-3.4,8.1-3.4" transform="translate(2)"/>
    <line id="XMLID_9_" class="cls-5" y1="15.7" transform="translate(123 40.8)"/>
    <line id="XMLID_8_" class="cls-5" y1="14" x2="7.1" transform="translate(150.9 46.2)"/>
    <line id="XMLID_7_" class="cls-5" y1="6.2" x2="9.4" transform="translate(169.9 69.7)"/>
    <line id="XMLID_6_" class="cls-5" y1="1.2" x2="7.6" transform="translate(176.7 96.6)"/>
    <line id="XMLID_5_" class="cls-5" x1="7.1" y1="14" transform="translate(88 46.2)"/>
    <line id="XMLID_4_" class="cls-5" x1="9.4" y1="6.2" transform="translate(66.7 69.7)"/>
    <line id="XMLID_3_" class="cls-5" x1="7.6" y1="1.2" transform="translate(61.7 96.6)"/>
    <path id="XMLID_2_" class="cls-3" d="M143,178.8H102.6a5.484,5.484,0,0,1-5.5-5.5h0a5.484,5.484,0,0,1,5.5-5.5H143a5.484,5.484,0,0,1,5.5,5.5h0a5.484,5.484,0,0,1-5.5,5.5Z" transform="translate(2 3)"/>
  </g>
</svg>
