<svg xmlns="http://www.w3.org/2000/svg" viewBox="0 0 34.15 33.841">
  <defs>
    <style>
      .cls-1 {
        fill: #fed9a8;
      }

      .cls-2 {
        fill: #eabe92;
      }

      .cls-3 {
        fill: #ffb24d;
      }

      .cls-4 {
        fill: #f78b0b;
      }

      .cls-5 {
        fill: #ffcc5a;
      }

      .cls-6 {
        fill: #ffb000;
      }

      .cls-7 {
        fill: #fcd47c;
      }

      .cls-8 {
        fill: #f2f2f2;
      }

      .cls-9 {
        fill: #ffa227;
      }

      .cls-10 {
        fill: #e6e6e6;
      }

      .cls-11 {
        fill: #ffa233;
      }

      .cls-12 {
        fill: #6a4908;
      }
    </style>
  </defs>
  <g id="laborers" transform="translate(0 -2.315)">
    <path id="Path_203" data-name="Path 203" class="cls-1" d="M146.242,148.206h.575v.36a6.815,6.815,0,0,0,3.241,5.271v1.808a.387.387,0,0,1-.273.37l-3.456,1.064.007.008a9.361,9.361,0,0,0,13.656,0l.008-.008-3.456-1.064a.387.387,0,0,1-.273-.37v-1.822a6.811,6.811,0,0,0,3.242-5.271v-.346h.575a.89.89,0,0,0,.89-.89v-1.742a.89.89,0,0,0-.89-.89H146.242a.89.89,0,0,0-.89.89v1.742A.89.89,0,0,0,146.242,148.206Z" transform="translate(-136.09 -133.291)"/>
    <g id="Group_3" data-name="Group 3" transform="translate(15.776 11.396)">
      <path id="Path_204" data-name="Path 204" class="cls-2" d="M275.679,277.379l.008-.008-3.456-1.064a.387.387,0,0,1-.273-.37v-1.822a4.82,4.82,0,0,1-1.334.573l-.07.017c-.273.068-.51.123-.726.166v5.413A9.418,9.418,0,0,0,275.679,277.379Z" transform="translate(-267.756 -264.976)"/>
      <path id="Path_205" data-name="Path 205" class="cls-2" d="M247.929,144.687H245.8v3.868a6.708,6.708,0,0,1-4.576,5.843l-.07.017c-.249.062-.469.113-.669.155a5.194,5.194,0,0,0,2.8-.155l.07-.017a4.821,4.821,0,0,0,1.337-.575q.162-.1.32-.21l.01-.007c.044-.031.088-.063.132-.1l.047-.035.124-.1.047-.038c.042-.034.084-.068.125-.1l.023-.02q.205-.176.4-.37l.049-.05.1-.108.054-.058.1-.11.048-.055q.105-.121.205-.246l.024-.03.084-.109.059-.077.077-.106.061-.086.071-.1.063-.1c.021-.033.043-.065.063-.1q.057-.091.111-.183l.051-.089.064-.115.05-.094c.02-.038.04-.077.059-.115l.045-.092c.021-.043.04-.086.06-.129l.036-.079q.044-.1.085-.2c.008-.02.015-.041.023-.061.02-.051.039-.1.057-.152l.028-.08q.023-.068.045-.136l.025-.081c.014-.048.028-.1.041-.145.006-.023.013-.046.019-.069.018-.071.035-.141.05-.212,0-.01,0-.021.006-.031q.019-.091.034-.182c0-.024.007-.048.011-.071.007-.048.014-.1.019-.144,0-.025.006-.051.008-.076,0-.049.009-.1.012-.146,0-.022,0-.045,0-.067,0-.07.006-.139.006-.209h0v-.347h0v-3.522Z" transform="translate(-240.486 -144.687)"/>
    </g>
    <path id="Path_206" data-name="Path 206" class="cls-3" d="M155.433,29.8h-.351v-.723q0-.087,0-.173a6.573,6.573,0,0,0-6.685-6.242h-2.349a6.573,6.573,0,0,0-6.685,6.242q0,.086,0,.173V29.8h-.351a.581.581,0,0,0-.589.572v.743a.581.581,0,0,0,.589.572h16.426a.581.581,0,0,0,.589-.572v-.743A.581.581,0,0,0,155.433,29.8Z" transform="translate(-130.145 -18.91)"/>
    <path id="Path_207" data-name="Path 207" class="cls-4" d="M250.226,29.8h-.331v-.723q0-.087,0-.173a6.366,6.366,0,0,0-6.306-6.242h-2.135a6.366,6.366,0,0,1,6.306,6.242q0,.086,0,.173V29.8h.331a.564.564,0,0,1,.556.572v.743a.564.564,0,0,1-.556.572h2.135a.564.564,0,0,0,.556-.572v-.743A.564.564,0,0,0,250.226,29.8Z" transform="translate(-225.675 -18.91)"/>
    <path id="Path_208" data-name="Path 208" class="cls-5" d="M235.755,14.327h-.628a1.248,1.248,0,0,1-1.248-1.248V10.834a1.248,1.248,0,0,1,1.248-1.248h.628A1.248,1.248,0,0,1,237,10.834v2.244A1.248,1.248,0,0,1,235.755,14.327Z" transform="translate(-218.366 -6.758)"/>
    <path id="Path_209" data-name="Path 209" class="cls-6" d="M248.862,9.586h-.63a1.247,1.247,0,0,0-.252.025V14.3a1.253,1.253,0,0,0,.252.025h.63a1.248,1.248,0,0,0,1.248-1.249V10.835A1.249,1.249,0,0,0,248.862,9.586Z" transform="translate(-231.501 -6.758)"/>
    <path id="Path_210" data-name="Path 210" class="cls-7" d="M36.816,312.97l-7.021-2.631a.375.375,0,0,0-.407.1l-.485.515a6.879,6.879,0,0,1-10.114,0l-.485-.515a.375.375,0,0,0-.407-.1l-7.021,2.631a5.212,5.212,0,0,0-3.284,4.612l-.3,5.079a1.117,1.117,0,0,0,1.075,1.217H39.33a1.117,1.117,0,0,0,1.075-1.217l-.3-5.079A5.212,5.212,0,0,0,36.816,312.97Z" transform="translate(-6.771 -288.236)"/>
    <path id="Path_211" data-name="Path 211" class="cls-6" d="M449.951,355.968l-.323-5.079a5.243,5.243,0,0,0-3.483-4.612l-.352-.125a7.109,7.109,0,0,1,1.658,3.982l.448,7.051h.911A1.143,1.143,0,0,0,449.951,355.968Z" transform="translate(-416.318 -321.543)"/>
    <g id="Group_4" data-name="Group 4" transform="translate(4.927 22.926)">
      <path id="Path_212" data-name="Path 212" class="cls-8" d="M76.865,323.733v11.3h4.01V322.316Z" transform="translate(-76.865 -322.316)"/>
      <path id="Path_213" data-name="Path 213" class="cls-8" d="M378.346,322.316v12.715h4.01v-11.3Z" transform="translate(-358.059 -322.316)"/>
    </g>
    <path id="Path_214" data-name="Path 214" class="cls-9" d="M160.36,310.339a.414.414,0,0,0-.431.1l-.514.515a7.6,7.6,0,0,1-10.726,0l-.514-.515a.414.414,0,0,0-.431-.1l-1.437.508,1.256,1.291a9.23,9.23,0,0,0,12.978,0l1.256-1.291Z" transform="translate(-136.976 -287.629)"/>
    <g id="Group_5" data-name="Group 5" transform="translate(4.734 22.926)">
      <path id="Path_215" data-name="Path 215" class="cls-10" d="M404.988,343.783h2.129v-11.3l-2.129-.752Z" transform="translate(-383.701 -331.067)"/>
      <path id="Path_216" data-name="Path 216" class="cls-10" d="M103.508,335.031h2.129V322.316l-2.129.752Z" transform="translate(-103.508 -322.316)"/>
    </g>
    <ellipse id="Ellipse_6" data-name="Ellipse 6" class="cls-11" cx="1.621" cy="1.221" rx="1.621" ry="1.221" transform="matrix(0.378, -0.926, 0.926, 0.378, 11.438, 8.866)"/>
    <path id="Path_217" data-name="Path 217" class="cls-12" d="M34.147,34.49l-.305-4.8a5.431,5.431,0,0,0-3.613-4.784l-1.044-.369h0L25.4,23.2h0l-2.2-.778-.065-.02L23.1,22.4l-.037-.008-.036-.006-.027,0-.043,0h-.017l-.038,0a.887.887,0,0,0-.13.011h-.006a.866.866,0,0,0-.231.07h0a.878.878,0,0,0-.1.057l0,0-.032.022-.035.026-.023.018c-.018.015-.036.032-.054.049l-1.791-.551V20.71l.09-.062.01-.007a7.248,7.248,0,0,0,2.811-4.009l.005-.022q.024-.1.045-.2l.008-.04q.042-.215.066-.428c0-.022,0-.043.006-.065q.007-.072.011-.143c0-.025,0-.05,0-.075s0-.024,0-.036h.061A1.328,1.328,0,0,0,24.941,14.3V12.651c0-.043,0-.086-.007-.129a1.03,1.03,0,0,0,.469-.865v-.7a1.024,1.024,0,0,0-.838-1.012V9.732q0-.088,0-.176a6.628,6.628,0,0,0-.212-1.507.486.486,0,1,0-.94.246,5.654,5.654,0,0,1,.181,1.286q0,.075,0,.151v.683a.486.486,0,0,0,.486.486h.312c.018,0,.039.022.039.055v.7c0,.032-.021.055-.039.055H9.758c-.019,0-.039-.022-.039-.055v-.7c0-.032.021-.055.039-.055h.312a.486.486,0,0,0,.486-.486V9.732q0-.076,0-.151a5.584,5.584,0,0,1,4.555-5.343V6.1a1.667,1.667,0,0,0,1.665,1.665h.593A1.667,1.667,0,0,0,19.037,6.1V4.239a5.521,5.521,0,0,1,3.646,2.416.486.486,0,1,0,.813-.532,6.486,6.486,0,0,0-4.638-2.892,1.667,1.667,0,0,0-1.487-.916h-.593a1.667,1.667,0,0,0-1.486.916A6.4,6.4,0,0,0,11.4,5.183,6.559,6.559,0,0,0,9.587,9.557c0,.058,0,.117,0,.176v.212a1.024,1.024,0,0,0-.838,1.012v.7a1.03,1.03,0,0,0,.468.865c0,.043-.007.086-.007.129V14.3a1.328,1.328,0,0,0,1.326,1.326h.06c0,.029,0,.058,0,.087v.01q.013.226.048.455c0,.022.007.044.011.065q.011.068.025.136.01.052.021.1c.006.026.012.053.018.079a7.225,7.225,0,0,0,2.931,4.165v1.351l-1.789.551c-.017-.017-.035-.033-.053-.048l-.023-.018-.034-.026-.032-.022h0a.877.877,0,0,0-.105-.058h0a.87.87,0,0,0-.231-.07h-.006a.888.888,0,0,0-.13-.011l-.038,0h-.017l-.043,0-.027,0-.037.006-.037.008-.028.007-.065.02L9.6,22.9h0l-.843.3h0L4.965,24.539h0l-1.043.369A5.431,5.431,0,0,0,.309,29.692l-.037.575a.486.486,0,1,0,.97.062l.037-.575a4.46,4.46,0,0,1,2.967-3.929l.4-.14v9.5H1.565a.594.594,0,0,1-.592-.633l.144-2.269a.486.486,0,0,0-.97-.062L0,34.49a1.566,1.566,0,0,0,1.562,1.666h31.02a1.566,1.566,0,0,0,1.562-1.666ZM16.779,3.287h.593a.694.694,0,0,1,.669.514v.006a.768.768,0,0,1,.017.088h0a.64.64,0,0,1,.006.085V6.1a.694.694,0,0,1-.693.693h-.593a.694.694,0,0,1-.693-.693V3.98a.638.638,0,0,1,.006-.085h0a.746.746,0,0,1,.017-.088V3.8A.694.694,0,0,1,16.779,3.287ZM9.628,23.922l.97,1,.006.006a9.205,9.205,0,0,0,12.944,0l.006-.006.97-1,.227.08V35.184H9.4V24Zm1.594-.563.444.444a7.663,7.663,0,0,0,10.82,0l.444-.444.585.207-.654.672a8.233,8.233,0,0,1-11.569,0l-.654-.672Zm.343-7.88V12.687h11.02v2.447s0,0,0,0v.327c0,.011,0,.021,0,.032,0,.047,0,.093,0,.14,0,.023,0,.046,0,.069s-.006.075-.01.113c0,.022,0,.044-.007.067q-.008.068-.019.136c0,.014,0,.027-.006.04a6,6,0,0,1-3.9,4.451l-.066.016a6.433,6.433,0,0,1-1.523.252h0a6.343,6.343,0,0,1-1.539-.259A5.9,5.9,0,0,1,11.565,15.478Zm12.4-1.181a.355.355,0,0,1-.354.354h-.057V12.684h.412V14.3Zm-13.788,0V12.684h.413v1.968h-.058A.355.355,0,0,1,10.18,14.3Zm3.845,8.682a.848.848,0,0,0,.6-.814v-.915a4.641,4.641,0,0,0,.64.215,7.215,7.215,0,0,0,1.776.288h0a7.219,7.219,0,0,0,1.757-.281l.066-.016a4.549,4.549,0,0,0,.656-.219v.928a.848.848,0,0,0,.6.814l1.371.422-.016.014q-.1.088-.2.171l-.031.025c-.07.056-.141.111-.213.164l-.024.017c-.076.055-.152.109-.23.161l0,0q-.117.078-.237.151l-.018.011c-.078.047-.156.091-.235.135l-.032.017q-.116.063-.234.12l-.038.018q-.118.057-.237.109l-.038.016q-.121.052-.245.1l-.032.012q-.128.048-.257.09l-.017.005q-.132.043-.267.08l-.012,0c-.089.025-.178.047-.268.068l-.032.007q-.13.029-.261.054l-.041.008q-.129.023-.26.041l-.044.006q-.131.017-.264.03l-.04,0c-.091.008-.181.014-.273.018h-.027c-.1,0-.192.006-.289.006s-.193,0-.289-.006h-.027c-.091,0-.182-.011-.273-.018l-.04,0q-.133-.012-.264-.03L16.138,25q-.131-.018-.26-.041l-.041-.008c-.088-.016-.175-.034-.261-.054l-.032-.007c-.09-.021-.179-.043-.268-.068l-.011,0q-.135-.037-.267-.081l-.016-.005c-.087-.028-.172-.059-.257-.091l-.032-.012q-.123-.047-.245-.1l-.038-.016q-.12-.052-.237-.108l-.038-.018q-.118-.058-.234-.12l-.032-.018q-.118-.065-.235-.134l-.019-.012q-.119-.072-.236-.15l-.006,0c-.077-.052-.153-.105-.229-.16l-.025-.018q-.108-.079-.212-.163l-.033-.026q-.1-.083-.2-.17l-.017-.015ZM5.613,35.184V25.341l2.816-1V35.184H5.613Zm20.109,0V24.346l2.816,1v9.843Zm7.3-.187a.587.587,0,0,1-.432.187H29.509v-9.5l.4.14a4.46,4.46,0,0,1,2.967,3.929l.305,4.8A.59.59,0,0,1,33.017,35Z" transform="translate(0)"/>
  </g>
</svg>
