<svg xmlns="http://www.w3.org/2000/svg" viewBox="0 0 28.912 33.675">
  <defs>
    <style>
      .cls-1, .cls-2 {
        fill: none;
        stroke: #212d59;
        stroke-miterlimit: 10;
      }

      .cls-1 {
        stroke-width: 0.9px;
      }

      .cls-2 {
        stroke-linecap: round;
        stroke-width: 0.8px;
      }

      .cls-3 {
        fill: #39b54a;
      }

      .cls-4 {
        fill: #f15a24;
      }
    </style>
  </defs>
  <g id="todolist" transform="translate(-87.54 -0.34)">
    <path id="Path_2" data-name="Path 2" class="cls-1" d="M112.784,30.475,96.841,33.489a3.958,3.958,0,0,1-4.622-3.148L88.066,8.5A3.958,3.958,0,0,1,91.214,3.88L107.157.866a3.958,3.958,0,0,1,4.622,3.148l4.153,21.838a3.993,3.993,0,0,1-3.148,4.622Z" transform="translate(0)"/>
    <line id="Line_1" data-name="Line 1" class="cls-2" y1="1.474" x2="7.838" transform="translate(100.325 6.895)"/>
    <line id="Line_2" data-name="Line 2" class="cls-2" y1="1.474" x2="7.838" transform="translate(101.999 15.67)"/>
    <line id="Line_3" data-name="Line 3" class="cls-2" y1="1.474" x2="7.838" transform="translate(103.674 24.446)"/>
    <path id="Path_3" data-name="Path 3" class="cls-3" d="M96.288,13.807l-.717.1a1.257,1.257,0,0,1-1.434-.973l-.154-.666a1.257,1.257,0,0,1,.973-1.434l.666-.154a1.257,1.257,0,0,1,1.434.973l.154.666A1.249,1.249,0,0,1,96.288,13.807Z" transform="translate(-0.971 -3.258)"/>
    <path id="Path_4" data-name="Path 4" class="cls-4" d="M98.837,26.956l-.666.154a1.257,1.257,0,0,1-1.434-.973l-.154-.666a1.257,1.257,0,0,1,.973-1.434l.666-.154a1.257,1.257,0,0,1,1.434.973l.154.666a1.257,1.257,0,0,1-.973,1.434Z" transform="translate(-1.829 -7.616)"/>
    <path id="Path_5" data-name="Path 5" class="cls-4" d="M101.337,39.956l-.666.154a1.257,1.257,0,0,1-1.434-.973l-.154-.666a1.257,1.257,0,0,1,.973-1.434l.666-.154a1.257,1.257,0,0,1,1.434.973l.154.666a1.229,1.229,0,0,1-.973,1.434Z" transform="translate(-2.654 -11.907)"/>
  </g>
</svg>
