<svg xmlns="http://www.w3.org/2000/svg" viewBox="0 0 43.593 39.806">
  <defs>
    <style>
      .cls-1 {
        fill: #fbdb00;
        stroke: #7e570c;
        stroke-miterlimit: 10;
        stroke-width: 0.8px;
      }
    </style>
  </defs>
  <path id="travaux" class="cls-1" d="M577.227,6.911c-2.544-.619-12.651-1.031-16.639,14.852l3.438.413c-6.257-1.788-7.288,3.3-7.426,4.607,0,.206.069.344.206.344l17.533,4.4,17.6,4.4c.137.069.275-.069.344-.206.481-1.238,1.994-6.188-4.4-7.563l3.232,1.238c3.988-15.883-5.157-20.284-7.632-20.9l-3.232,12.651,3.232-12.789a2.149,2.149,0,0,0-1.375-2.75l-1.169-.275L579.7,4.986a2.131,2.131,0,0,0-2.475,1.788L574,19.562" transform="translate(-540.78 139.093) rotate(-14)"/>
</svg>
