<svg xmlns="http://www.w3.org/2000/svg" viewBox="0 0 236.004 154.697">
  <defs>
    <style>
      .cls-1 {
        fill: rgba(226,246,255,0.25);
      }

      .cls-1, .cls-2 {
        stroke: #31bdfc;
        stroke-width: 2px;
      }

      .cls-2 {
        fill: rgba(226,246,255,0.26);
      }

      .cls-3, .cls-6 {
        fill: none;
      }

      .cls-3 {
        stroke: #a2befa;
      }

      .cls-4 {
        fill: #eaf0fd;
      }

      .cls-5 {
        stroke: none;
      }
    </style>
  </defs>
  <g id="Group_85" data-name="Group 85" transform="translate(-1613 -3408)">
    <g id="Rectangle_128" data-name="Rectangle 128" class="cls-1" transform="translate(1667.684 3408)">
      <path class="cls-5" d="M3,0H24.342a3,3,0,0,1,3,3V119.441a0,0,0,0,1,0,0H0a0,0,0,0,1,0,0V3A3,3,0,0,1,3,0Z"/>
      <path class="cls-6" d="M3,1H24.342a2,2,0,0,1,2,2V117.441a1,1,0,0,1-1,1H2a1,1,0,0,1-1-1V3A2,2,0,0,1,3,1Z"/>
    </g>
    <g id="Rectangle_129" data-name="Rectangle 129" class="cls-1" transform="translate(1847.565 3448.659) rotate(90)">
      <path class="cls-5" d="M3,0H17.147a3,3,0,0,1,3,3V153.978a0,0,0,0,1,0,0H0a0,0,0,0,1,0,0V3A3,3,0,0,1,3,0Z"/>
      <path class="cls-6" d="M3,1H17.147a2,2,0,0,1,2,2V151.978a1,1,0,0,1-1,1H2a1,1,0,0,1-1-1V3A2,2,0,0,1,3,1Z"/>
    </g>
    <g id="Rectangle_130" data-name="Rectangle 130" class="cls-2" transform="translate(1714.453 3526.002) rotate(90)">
      <rect class="cls-5" width="36.696" height="66.916" rx="3"/>
      <rect class="cls-6" x="1" y="1" width="34.696" height="64.916" rx="2"/>
    </g>
    <line id="Line_32" data-name="Line 32" class="cls-3" x2="153.259" transform="translate(1695.385 3469.422)"/>
    <line id="Line_33" data-name="Line 33" class="cls-3" x1="54.684" transform="translate(1613.36 3468.08)"/>
    <path id="Path_215" data-name="Path 215" class="cls-4" d="M0,0H153.978V26.622H0Z" transform="translate(1695.026 3470.501)"/>
    <rect id="Rectangle_132" data-name="Rectangle 132" class="cls-4" width="53.964" height="26.622" transform="translate(1613 3469.16)"/>
  </g>
</svg>
