<svg xmlns="http://www.w3.org/2000/svg" viewBox="1409 333 19 25">
  <defs>
    <style>
      .cls-1 {
        fill: #0bf;
      }
    </style>
  </defs>
  <path id="icone-attente" class="cls-1" d="M21.5,24H20V19.5a7.5,7.5,0,0,0-4.825-7A7.5,7.5,0,0,0,20,5.5V1h1.5a.5.5,0,0,0,0-1H3.5a.5.5,0,0,0,0,1H5V5.5a7.5,7.5,0,0,0,4.825,7A7.5,7.5,0,0,0,5,19.5V24H3.5a.5.5,0,0,0,0,1h18a.5.5,0,0,0,0-1ZM6,5.5V1H19V5.5a6.5,6.5,0,1,1-13,0ZM12.5,13a6.5,6.5,0,0,1,6.415,5.5H6.085A6.5,6.5,0,0,1,12.5,13ZM19,24H6V19.5H19Z" transform="translate(1406 333)"/>
</svg>
