<svg xmlns="http://www.w3.org/2000/svg" viewBox="1440 331 29.625 25">
  <defs>
    <style>
      .cls-1 {
        fill: none;
      }

      .cls-2, .cls-3 {
        stroke: none;
      }

      .cls-3 {
        fill: #0bf;
      }
    </style>
  </defs>
  <g id="icone-emprunt" class="cls-1" transform="translate(1437.5 324)">
    <path class="cls-2" d="M32.118,20.755a2.16,2.16,0,0,1-.653,1.707L21.677,31.2a2.985,2.985,0,0,1-2.008.8,2.843,2.843,0,0,1-.9-.151L9.076,28.486l-1.807.9v.2a1.222,1.222,0,0,1-1.2,1.2H3.1a.58.58,0,0,1-.6-.6.61.61,0,0,1,.6-.6H6.064V18.948H3.1a.6.6,0,1,1,0-1.2H6.064a1.186,1.186,0,0,1,1.155,1l4.016-1c.1-.05.2,0,.351,0L17.41,19.7a2.536,2.536,0,0,1,1.707,2.359,2.678,2.678,0,0,1-.753,1.807l1.857.351,8.584-5.171a2.112,2.112,0,0,1,2.46.1A2.231,2.231,0,0,1,32.118,20.755Zm-1.2.05a.8.8,0,0,0-.4-.7.99.99,0,0,0-1.1-.05l-8.835,5.321a.393.393,0,0,1-.4.05L14.3,24.269h0a.582.582,0,1,1,.151-1.155l2.008.3a1.323,1.323,0,0,0,1.054-.3,1.264,1.264,0,0,0,.452-1,1.342,1.342,0,0,0-.9-1.255L11.386,19,7.269,20.052v8.032l1.506-.753a.709.709,0,0,1,.452-.05l9.94,3.464a1.767,1.767,0,0,0,1.757-.4l9.739-8.785A.829.829,0,0,0,30.914,20.805ZM19.869,10.564h2.761a.452.452,0,1,1,0,.9H19.669c0,.151-.05.3-.05.452s.05.3.05.452h2.962a.452.452,0,1,1,0,.9H19.869a3.662,3.662,0,0,0,3.464,2.56,3.586,3.586,0,0,0,2.46-1,.426.426,0,1,1,.6.6,4.369,4.369,0,0,1-3.062,1.2,4.51,4.51,0,0,1-4.367-3.464h-.653a.452.452,0,1,1,0-.9h.452v-.9h-.452a.452.452,0,1,1,0-.9h.6A4.6,4.6,0,0,1,23.283,7a4.7,4.7,0,0,1,3.062,1.2.426.426,0,0,1-.6.6,3.586,3.586,0,0,0-2.46-1A4.064,4.064,0,0,0,19.869,10.564Z"/>
    <path class="cls-3" d="M 19.66867446899414 32 C 19.36746597290039 32 19.06626510620117 31.94980049133301 18.76506614685059 31.84939956665039 L 9.076305389404297 28.4859504699707 L 7.269075393676758 29.38956069946289 L 7.269075393676758 29.59036064147949 C 7.269075393676758 30.24296951293945 6.716865539550781 30.79517936706543 6.064255237579346 30.79517936706543 L 3.102405309677124 30.79517936706543 C 2.751005411148071 30.79517936706543 2.50000524520874 30.54417991638184 2.50000524520874 30.19277000427246 C 2.50000524520874 29.89156913757324 2.751005411148071 29.59036064147949 3.102405309677124 29.59036064147949 L 6.064255237579346 29.59036064147949 L 6.064255237579346 18.94779014587402 L 3.102405309677124 18.94779014587402 C 2.751005411148071 18.94779014587402 2.50000524520874 18.69679069519043 2.50000524520874 18.34538078308105 C 2.50000524520874 17.99397087097168 2.751005411148071 17.74296951293945 3.102405309677124 17.74296951293945 L 6.064255237579346 17.74296951293945 C 6.666665554046631 17.74296951293945 7.118475437164307 18.19478034973145 7.218875408172607 18.74699020385742 L 11.23494529724121 17.74296951293945 C 11.26840972900391 17.72623825073242 11.30188083648682 17.72065925598145 11.3372049331665 17.72065925598145 C 11.40785789489746 17.72065925598145 11.48594188690186 17.74296951293945 11.58634567260742 17.74296951293945 L 17.40964508056641 19.7007999420166 C 18.41365623474121 20.05220985412598 19.11646461486816 21.00601959228516 19.11646461486816 22.06023979187012 C 19.11646461486816 22.7630500793457 18.81526565551758 23.36545944213867 18.36345481872559 23.86746978759766 L 20.22088623046875 24.21887969970703 L 28.80522537231445 19.04818916320801 C 29.15484428405762 18.81510925292969 29.55869483947754 18.70104789733887 29.96126174926758 18.70104789733887 C 30.42574501037598 18.70104789733887 30.8885612487793 18.8527774810791 31.26506614685059 19.14859962463379 C 31.76706504821777 19.55019950866699 32.06827545166016 20.10240936279297 32.11847686767578 20.75502014160156 C 32.16867446899414 21.40763092041016 31.91766548156738 22.01004028320312 31.46586608886719 22.46184921264648 L 21.67670440673828 31.19679069519043 C 21.1244945526123 31.69879913330078 20.42168617248535 32 19.66867446899414 32 Z M 9.094575881958008 27.26032638549805 C 9.138688087463379 27.26032638549805 9.182793617248535 27.26641654968262 9.22690486907959 27.28112030029297 L 19.16666603088379 30.74497985839844 C 19.34241676330566 30.80356216430664 19.52252769470215 30.83223533630371 19.70183944702148 30.83224487304688 C 20.13713836669922 30.83226776123047 20.56814575195312 30.66336441040039 20.9236946105957 30.34337043762207 L 30.66264533996582 21.55822944641113 C 30.86345481872559 21.35742950439453 30.9638557434082 21.10643005371094 30.91365623474121 20.80521965026855 C 30.91365623474121 20.50402069091797 30.7630558013916 20.25300979614258 30.51204490661621 20.10240936279297 C 30.32656478881836 19.96992492675781 30.11307334899902 19.9073600769043 29.90855598449707 19.9073600769043 C 29.72560691833496 19.9073600769043 29.54984664916992 19.95739936828613 29.40762519836426 20.05220985412598 L 20.57228469848633 25.37348937988281 C 20.51347541809082 25.43230628967285 20.42020797729492 25.45666885375977 20.33285903930664 25.4566707611084 C 20.27108573913574 25.45667266845703 20.21227645874023 25.44448852539062 20.17068481445312 25.42369079589844 L 14.29718494415283 24.26907920837402 C 13.99598503112793 24.21887969970703 13.74497509002686 23.91766929626465 13.79518508911133 23.61647033691406 C 13.84104347229004 23.34131050109863 14.09639930725098 23.1080322265625 14.36983394622803 23.1080322265625 C 14.39572143554688 23.1080322265625 14.4217357635498 23.1101188659668 14.44778537750244 23.11445999145508 L 16.45582580566406 23.4156608581543 C 16.52274322509766 23.42402458190918 16.58831214904785 23.42820930480957 16.65244293212891 23.42820930480957 C 16.97318649291992 23.42820930480957 17.25902366638184 23.32363700866699 17.51003456115723 23.11445999145508 C 17.81124496459961 22.86344909667969 17.96184539794922 22.51205062866211 17.96184539794922 22.11043930053711 C 17.96184539794922 21.55822944641113 17.61044502258301 21.05621910095215 17.05823516845703 20.85541915893555 L 11.38554573059082 18.99798965454102 L 7.269075393676758 20.05220985412598 L 7.269075393676758 28.0843391418457 L 8.775105476379395 27.33131980895996 C 8.881593704223633 27.29582405090332 8.98808765411377 27.26032638549805 9.094575881958008 27.26032638549805 Z M 23.33333587646484 16.6385498046875 C 21.22490501403809 16.6385498046875 19.46787452697754 15.18272972106934 18.96586608886719 13.1746997833252 L 18.31325531005859 13.1746997833252 C 18.0622444152832 13.1746997833252 17.8614444732666 12.97389984130859 17.8614444732666 12.72288990020752 C 17.8614444732666 12.47189044952393 18.0622444152832 12.27108955383301 18.31325531005859 12.27108955383301 L 18.76506614685059 12.27108955383301 C 18.76506614685059 12.12047958374023 18.76506614685059 11.96988010406494 18.76506614685059 11.81927967071533 C 18.76506614685059 11.66868019104004 18.76506614685059 11.51807022094727 18.76506614685059 11.36746978759766 L 18.31325531005859 11.36746978759766 C 18.0622444152832 11.36746978759766 17.8614444732666 11.16666984558105 17.8614444732666 10.91565990447998 C 17.8614444732666 10.66466045379639 18.0622444152832 10.46385955810547 18.31325531005859 10.46385955810547 L 18.91566467285156 10.46385955810547 C 19.46787452697754 8.455829620361328 21.22489547729492 7 23.28313446044922 7 C 24.3875560760498 7 25.49196624755859 7.451809883117676 26.34538459777832 8.204819679260254 C 26.49598503112793 8.355420112609863 26.54618453979492 8.65662956237793 26.34538459777832 8.807229995727539 C 26.26478576660156 8.887824058532715 26.14103889465332 8.939664840698242 26.02034568786621 8.939670562744141 C 25.9155101776123 8.939675331115723 25.81298065185547 8.900570869445801 25.74297523498535 8.807229995727539 C 25.0401554107666 8.154620170593262 24.18674468994141 7.803209781646729 23.28313446044922 7.803209781646729 C 21.72690582275391 7.95382022857666 20.37148475646973 9.058230400085449 19.86947441101074 10.56425952911377 L 22.63051605224609 10.56425952911377 C 22.88152503967285 10.56425952911377 23.08232498168945 10.76506042480469 23.08232498168945 11.01605987548828 C 23.08232498168945 11.26706981658936 22.88152503967285 11.46786975860596 22.63051605224609 11.46786975860596 L 19.66867446899414 11.46786975860596 C 19.66867446899414 11.61847019195557 19.61847496032715 11.76908016204834 19.61847496032715 11.91967964172363 C 19.61847496032715 12.07028007507324 19.66867446899414 12.22087955474854 19.66867446899414 12.37148952484131 L 22.63051605224609 12.37148952484131 C 22.88152503967285 12.37148952484131 23.08232498168945 12.57229042053223 23.08232498168945 12.82328987121582 C 23.08232498168945 13.07429981231689 22.88152503967285 13.2750997543335 22.63051605224609 13.2750997543335 L 19.86947441101074 13.2750997543335 C 20.37148475646973 14.78112030029297 21.72690582275391 15.83533954620361 23.33333587646484 15.83533954620361 C 24.23694610595703 15.83533954620361 25.09036445617676 15.48394012451172 25.79317474365234 14.83133029937744 C 25.86847496032715 14.75602531433105 25.9814281463623 14.7183723449707 26.09437942504883 14.7183723449707 C 26.20733261108398 14.7183723449707 26.32028579711914 14.75602531433105 26.39558601379395 14.83133029937744 C 26.54618453979492 14.98192977905273 26.54618453979492 15.28312969207764 26.39558601379395 15.43373966217041 C 25.54216575622559 16.2369499206543 24.48795509338379 16.6385498046875 23.33333587646484 16.6385498046875 Z"/>
  </g>
</svg>
