<svg xmlns="http://www.w3.org/2000/svg" viewBox="1337 334 24.998 25">
  <defs>
    <style>
      .cls-1 {
        fill: #0bf;
      }
    </style>
  </defs>
  <path id="icone-paye" class="cls-1" d="M11.843,17.39C13.2,15.114,18.588,6.327,23.081,2.18a.521.521,0,1,1,.706.765c-4.962,4.581-11.3,15.394-11.36,15.5a.521.521,0,0,1-.786.135c-.047-.04-4.721-3.994-6.237-5.2a.521.521,0,1,1,.649-.816C7.292,13.555,10.608,16.348,11.843,17.39Zm12.849-6.608a.521.521,0,1,0-1.017.226,11.44,11.44,0,1,1-6.695-8.054.521.521,0,1,0,.409-.958,12.546,12.546,0,1,0,7.3,8.787Z" transform="translate(1337.002 333.003)"/>
</svg>
