<svg xmlns="http://www.w3.org/2000/svg" viewBox="1372 333 27.174 25">
  <defs>
    <style>
      .cls-1 {
        fill: #0bf;
      }
    </style>
  </defs>
  <path id="icone-apport" class="cls-1" d="M26.3,9.608l-1.925-.385a9.637,9.637,0,0,0-.982-1.891l.52-6.245s-4.2.428-6.2,1.914a13.235,13.235,0,0,0-2.1-.582A4.87,4.87,0,0,0,6.652,3.805,11.024,11.024,0,0,0,2.254,8.1L.845,7.157a.543.543,0,1,0-.6.9L1.785,9.089a9,9,0,0,0-.7,3.411,9.634,9.634,0,0,0,3.457,7.259v3.067A2.174,2.174,0,0,0,6.717,25h.7a2.174,2.174,0,0,0,2.144-2.531l-.016-.1a13.725,13.725,0,0,0,7.211-.06l-.026.155A2.174,2.174,0,0,0,18.871,25h.694a2.174,2.174,0,0,0,2.174-2.174V19.573a9.913,9.913,0,0,0,3.008-4.957l1.554-.311a1.087,1.087,0,0,0,.874-1.066V10.674A1.087,1.087,0,0,0,26.3,9.608ZM22.717,2.359l-.29,3.481c-.221-.127-.436-.256-.652-.385A11.907,11.907,0,0,0,18.928,3.52a14.137,14.137,0,0,1,3.789-1.162Zm-11.3-1.272a3.809,3.809,0,0,1,3.8,3.8,3.312,3.312,0,0,1-.046.543H7.655a3.312,3.312,0,0,1-.046-.543,3.809,3.809,0,0,1,3.8-3.8ZM8.242,23.529a1.071,1.071,0,0,1-.829.384h-.7a1.088,1.088,0,0,1-1.087-1.087V20.593A12.45,12.45,0,0,0,8.378,22.01l.106.637A1.071,1.071,0,0,1,8.242,23.529Zm12.411-.7a1.088,1.088,0,0,1-1.087,1.087h-.695A1.087,1.087,0,0,1,17.8,22.647l.121-.725a12.405,12.405,0,0,0,2.733-1.457Zm-7.609-1.087c-5.994,0-10.87-4.145-10.87-9.239A8.843,8.843,0,0,1,6.545,5.129a5,5,0,0,0,.276,1.393h9.184a4.845,4.845,0,0,0,.3-1.63,4.849,4.849,0,0,0-.176-1.231c4.492,1.135,7.784,4.659,7.784,8.84C23.913,17.595,19.037,21.739,13.044,21.739Zm11.9-8.271a8.571,8.571,0,0,0-.2-3.064l1.343.269v2.565ZM20.652,9.239a.543.543,0,1,1-.543-.543A.543.543,0,0,1,20.652,9.239Z" transform="translate(1372 333)"/>
</svg>
