<svg xmlns="http://www.w3.org/2000/svg" viewBox="1477 331 25 25">
  <defs>
    <style>
      .cls-1 {
        fill: #0bf;
      }
    </style>
  </defs>
  <g id="icone-estime" transform="translate(1477 331)">
    <path id="Path_1" data-name="Path 1" class="cls-1" d="M12.5,0A12.5,12.5,0,1,0,25,12.5,12.5,12.5,0,0,0,12.5,0Zm0,24A11.5,11.5,0,1,1,24,12.5,11.5,11.5,0,0,1,12.5,24ZM8.264,11H11.5a.5.5,0,0,1,0,1H8.048A4.607,4.607,0,0,0,8,12.5a4.607,4.607,0,0,0,.048.5H11.5a.5.5,0,0,1,0,1H8.264A4.311,4.311,0,0,0,12.3,17a4.188,4.188,0,0,0,2.859-1.146.5.5,0,1,1,.683.73A5.181,5.181,0,0,1,12.3,18a5.34,5.34,0,0,1-5.094-4H6.5a.5.5,0,0,1,0-1h.524C7.01,12.835,7,12.669,7,12.5s.01-.335.024-.5H6.5a.5.5,0,0,1,0-1h.706A5.34,5.34,0,0,1,12.3,7a5.181,5.181,0,0,1,3.541,1.415.5.5,0,1,1-.683.73A4.188,4.188,0,0,0,12.3,8,4.311,4.311,0,0,0,8.264,11Z"/>
  </g>
</svg>
