<svg id="Group_1" data-name="Group 1" xmlns="http://www.w3.org/2000/svg" viewBox="854 519 40 40">
  <defs>
    <style>
      .cls-1 {
        fill: #0bf;
        stroke-miterlimit: 10;
        opacity: 0.269;
      }

      .cls-2 {
        fill: rgba(230,232,236,0.38);
      }

      .cls-3, .cls-4 {
        stroke: none;
      }

      .cls-4 {
        fill: #212d59;
      }
    </style>
  </defs>
  <g id="Logo" class="cls-1" transform="translate(864.142 523.09)">
    <path class="cls-3" d="M 14.77183723449707 27.00252151489258 C 12.64294719696045 27.00252151489258 11.60696697235107 25.95863151550293 10.09298706054688 24.25541305541992 L 9.719286918640137 23.83499145507812 L 9.345586776733398 24.25541305541992 C 7.831606864929199 25.95863151550293 6.795647144317627 27.00252151489258 4.666737079620361 27.00252151489258 C 3.515626907348633 27.00252151489258 2.475926876068115 26.62705230712891 1.739166975021362 25.94528198242188 C 0.993916928768158 25.25565147399902 0.5999969244003296 24.31578254699707 0.5999969244003296 23.22729301452637 L 0.5999969244003296 11.85903263092041 C 0.5999969244003296 10.90247249603271 1.421806931495667 10.12425231933594 2.431946992874146 10.12425231933594 L 17.29812622070312 10.12425231933594 C 17.81270599365234 10.12425231933594 18.08270645141602 9.726112365722656 18.16111755371094 9.490852355957031 L 18.18677711486816 9.413882255554199 L 18.18677711486816 9.348922729492188 C 18.1877555847168 9.34140682220459 18.18902778625488 9.333126068115234 18.1903076171875 9.324182510375977 C 18.21357727050781 9.161252021789551 18.27541732788086 8.728462219238281 17.94316673278809 8.396222114562988 L 17.93497657775879 8.388031959533691 L 17.92641639709473 8.380222320556641 L 10.25746250152588 1.390793442726135 C 10.0703296661377 1.208433389663696 9.827982902526855 1.108172178268433 9.57354736328125 1.108172178268433 C 9.320744514465332 1.108172178268433 9.079874038696289 1.207151889801025 8.893242835998535 1.387279868125916 L 0.9152569770812988 8.404058456420898 C 0.9083299040794373 8.404645919799805 0.900383472442627 8.405052185058594 0.8916069269180298 8.405052185058594 C 0.8401669263839722 8.405052185058594 0.7401069402694702 8.39127254486084 0.6478769183158875 8.299052238464355 C 0.639276921749115 8.29044246673584 0.6130869388580322 8.264252662658691 0.6191869378089905 8.202622413635254 C 0.6244869232177734 8.149062156677246 0.6514168977737427 8.108612060546875 0.6688469052314758 8.096992492675781 L 0.6952069401741028 8.079412460327148 L 0.7191368937492371 8.058651924133301 L 8.783786773681641 1.062802195549011 L 8.79716682434082 1.051192164421082 L 8.809697151184082 1.038662195205688 C 9.040817260742188 0.8075522184371948 9.372346878051758 0.6750022172927856 9.719286918640137 0.6750022172927856 C 10.06622695922852 0.6750022172927856 10.39775657653809 0.8075522184371948 10.62887668609619 1.038662195205688 L 10.63706684112549 1.046852231025696 L 10.64562702178955 1.054662227630615 L 18.31267166137695 8.042350769042969 C 18.76331901550293 8.498008728027344 18.8924388885498 9.066071510314941 18.67607688903809 9.643022537231445 C 18.5154972076416 10.07125186920166 18.17978668212891 10.58172225952148 17.49244689941406 10.58172225952148 L 2.529116868972778 10.58172225952148 C 1.717646956443787 10.58172225952148 1.057466864585876 11.15472221374512 1.057466864585876 11.85903263092041 L 1.057466864585876 23.22729301452637 C 1.057466864585876 25.23796272277832 2.541646957397461 26.64223289489746 4.666727066040039 26.64223289489746 C 6.744196891784668 26.64223289489746 7.639416694641113 25.62765312194824 9.122567176818848 23.94676208496094 L 9.411856651306152 23.6189022064209 L 9.125487327575684 23.28848266601562 C 8.02873706817627 22.02300262451172 6.721366882324219 20.04114151000977 6.721366882324219 17.78607177734375 C 6.721366882324219 16.29257202148438 8.07686710357666 14.98248195648193 9.622126579284668 14.98248195648193 C 11.16738700866699 14.98248195648193 12.52287673950195 16.29257202148438 12.52287673950195 17.78607177734375 C 12.52287673950195 19.54779243469238 11.76414680480957 21.35259246826172 10.20333671569824 23.30360221862793 L 9.94085693359375 23.6317024230957 L 10.21884727478027 23.94676208496094 C 11.69344711303711 25.61796188354492 12.69757652282715 26.64223289489746 14.6746768951416 26.64223289489746 C 15.75013732910156 26.64223289489746 16.65909767150879 26.31721305847168 17.30328750610352 25.70230293273926 C 17.94483757019043 25.08990287780762 18.2839469909668 24.23406219482422 18.2839469909668 23.22729301452637 L 18.2839469909668 12.6363525390625 C 18.2839469909668 12.52355194091797 18.35129737854004 12.45620250701904 18.46409606933594 12.45620250701904 C 18.57689666748047 12.45620250701904 18.64424705505371 12.52355194091797 18.64424705505371 12.6363525390625 L 18.64424705505371 23.22729301452637 L 18.64424705505371 23.23690223693848 L 18.64461708068848 23.24651145935059 C 18.68467712402344 24.2879524230957 18.36204719543457 25.19570159912109 17.71161651611328 25.87163162231445 C 17.00985717773438 26.60090255737305 15.96582698822021 27.00252151489258 14.77183723449707 27.00252151489258 Z M 9.719286918640137 15.34278202056885 C 8.19965648651123 15.34278202056885 7.178836822509766 16.60613250732422 7.178836822509766 17.78607177734375 C 7.178836822509766 19.84547233581543 8.264307022094727 21.50464248657227 9.326127052307129 22.85604286193848 L 9.720067024230957 23.35741233825684 L 10.113037109375 22.85529136657715 C 12.0157470703125 20.42406272888184 12.25974655151367 18.86912155151367 12.25974655151367 17.78607177734375 L 12.25974655151367 17.76113128662109 L 12.25726699829102 17.7363224029541 C 12.14166736602783 16.58040237426758 11.09425735473633 15.34278202056885 9.719286918640137 15.34278202056885 Z"/>
    <path class="cls-4" d="M 14.77183723449707 27.50252151489258 C 12.43989658355713 27.50252151489258 11.27392673492432 26.33655166625977 9.719286918640137 24.58759307861328 C 8.164656639099121 26.33655166625977 6.998686790466309 27.50252151489258 4.666737079620361 27.50252151489258 C 2.043286800384521 27.50252151489258 0.09999691694974899 25.75357246398926 0.09999691694974899 23.22729301452637 C 0.09999691694974899 23.22729301452637 0.09999691694974899 12.0533618927002 0.09999691694974899 11.85903263092041 C 0.09999691694974899 10.59589195251465 1.168806910514832 9.624252319335938 2.431946992874146 9.624252319335938 L 17.29812622070312 9.624252319335938 C 17.5896167755127 9.624252319335938 17.68677711486816 9.332752227783203 17.68677711486816 9.332752227783203 C 17.68677711486816 9.235591888427734 17.7839469909668 8.94410228729248 17.5896167755127 8.749772071838379 L 9.913617134094238 1.7539222240448 C 9.816452026367188 1.656757235527039 9.69499683380127 1.608174681663513 9.573541641235352 1.608174681663513 C 9.452086448669434 1.608174681663513 9.330632209777832 1.656757235527039 9.233467102050781 1.7539222240448 L 1.168806910514832 8.846932411193848 C 1.097676753997803 8.882498741149902 1.000510931015015 8.905047416687012 0.8916055560112 8.905047416687012 C 0.7029779553413391 8.905048370361328 0.4791297912597656 8.837405204772949 0.2943269312381744 8.652602195739746 C 0.002836918691173196 8.361112594604492 0.09999691694974899 7.875292301177979 0.3914969265460968 7.680962085723877 L 8.456147193908691 0.6851122379302979 C 8.796221733093262 0.3450372219085693 9.257754325866699 0.1749997138977051 9.719286918640137 0.1749997138977051 C 10.18081951141357 0.1749997138977051 10.64235210418701 0.3450372219085693 10.98242664337158 0.6851122379302979 L 18.65842628479004 7.680962085723877 C 19.24141693115234 8.263952255249023 19.43573760986328 9.041262626647949 19.14424705505371 9.818582534790039 C 18.85275650024414 10.59589195251465 18.26976776123047 11.08172225952148 17.49244689941406 11.08172225952148 L 2.529116868972778 11.08172225952148 C 1.946126937866211 11.08172225952148 1.557466864585876 11.47037220001221 1.557466864585876 11.85903263092041 C 1.557466864585876 12.0533618927002 1.557466864585876 23.22729301452637 1.557466864585876 23.22729301452637 C 1.557466864585876 24.97625160217285 2.82060694694519 26.14223289489746 4.666727066040039 26.14223289489746 C 6.512856960296631 26.14223289489746 7.290176868438721 25.26774215698242 8.747647285461426 23.61595153808594 C 7.484507083892822 22.15848159790039 6.221366882324219 20.11802291870117 6.221366882324219 17.78607177734375 C 6.221366882324219 16.03711128234863 7.775996685028076 14.48248195648193 9.622126579284668 14.48248195648193 C 11.46824645996094 14.48248195648193 13.02287673950195 16.03711128234863 13.02287673950195 17.78607177734375 C 13.02287673950195 20.11802291870117 11.75974655151367 22.15848159790039 10.5937671661377 23.61595153808594 C 12.05123710632324 25.26774215698242 12.9257173538208 26.14223289489746 14.6746768951416 26.14223289489746 C 16.61796760559082 26.14223289489746 17.7839469909668 24.97625160217285 17.7839469909668 23.22729301452637 C 17.7839469909668 23.22729301452637 17.7839469909668 12.83068180084229 17.7839469909668 12.6363525390625 C 17.7839469909668 12.2476921081543 18.07543754577637 11.95620250701904 18.46409606933594 11.95620250701904 C 18.85275650024414 11.95620250701904 19.14424705505371 12.2476921081543 19.14424705505371 12.6363525390625 C 19.14424705505371 12.92784214019775 19.14424705505371 23.22729301452637 19.14424705505371 23.22729301452637 C 19.24141693115234 25.75357246398926 17.39528656005859 27.50252151489258 14.77183723449707 27.50252151489258 Z M 9.719286918640137 15.84278202056885 C 8.553317070007324 15.84278202056885 7.678836822509766 16.81443214416504 7.678836822509766 17.78607177734375 C 7.678836822509766 19.6322021484375 8.650476455688477 21.18683242797852 9.719286918640137 22.54713249206543 C 11.46825695037842 20.31235313415527 11.75974655151367 18.85488128662109 11.75974655151367 17.78607177734375 C 11.66257667541504 16.81443214416504 10.7880973815918 15.84278202056885 9.719286918640137 15.84278202056885 Z"/>
  </g>
  <circle id="Ellipse_1" data-name="Ellipse 1" class="cls-2" cx="20" cy="20" r="20" transform="translate(854 519)"/>
</svg>
