<?xml version="1.0" encoding="utf-8"?>
<svg version="1.1" xmlns="http://www.w3.org/2000/svg" xmlns:xlink="http://www.w3.org/1999/xlink" x="0px" y="0px" viewBox="0 0 1920 1080" style="enable-background:new 0 0 1920 1080;" xml:space="preserve">
	<style type="text/css">.st3{fill:none;stroke:#000000;stroke-miterlimit:10;opacity:0.04;}</style>
	<g id="Grid_1_">
		<line class="st3" x1="0" y1="0" x2="1920" y2="1080"/>
		<line class="st3" x1="1920" y1="0" x2="0" y2="1080"/>
		<line class="st4" x1="960" y1="0" x2="960" y2="1080"/>
		<line class="st4" x1="0" y1="540" x2="1920" y2="540"/>
		<line class="st3" x1="960" y1="0" x2="0" y2="1080"/>
		<line class="st3" x1="0" y1="0" x2="960" y2="1080"/>
		<line class="st3" x1="1920" y1="0" x2="960" y2="1080"/>
		<line class="st3" x1="960" y1="0" x2="1920" y2="1080"/>
		<line class="st3" x1="480" y1="1080" x2="0" y2="0"/>
		<line class="st3" x1="480" y1="0" x2="0" y2="1080"/>
		<line class="st3" x1="1920" y1="1080" x2="1440" y2="0"/>
		<line class="st3" x1="1920" y1="0" x2="1440" y2="1080"/>
		<line class="st3" x1="1920" y1="540" x2="0" y2="0"/>
		<line class="st3" x1="1920" y1="0" x2="0" y2="540"/>
		<line class="st3" x1="1920" y1="1080" x2="0" y2="540"/>
		<line class="st3" x1="0" y1="1080" x2="1920" y2="540"/>
		<line class="st3" x1="480" y1="1080" x2="480" y2="0"/>
		<line class="st3" x1="1440" y1="0" x2="1440" y2="1080"/>
		<line class="st3" x1="240" y1="1080" x2="240" y2="0"/>
		<line class="st3" x1="1680" y1="1080" x2="1680" y2="0"/>
		<line class="st3" x1="768" y1="1080" x2="768" y2="0"/>
		<line class="st3" x1="1152" y1="1080" x2="1152" y2="0"/>
		<line class="st3" x1="1920" y1="270" x2="0" y2="270"/>
		<line class="st3" x1="0" y1="810" x2="1920" y2="810"/>
		<line class="st3" x1="1920" y1="1012.5" x2="0" y2="1012.5"/>
		<line class="st3" x1="0" y1="67.5" x2="1920" y2="67.5"/>
		<line class="st3" x1="0" y1="360" x2="1920" y2="360"/>
		<line class="st3" x1="1860" y1="0" x2="1860" y2="1080"/>
		<line class="st3" x1="60" y1="0" x2="60" y2="1080"/>
		<line class="st3" x1="1800" y1="0" x2="1800" y2="1080"/>
		<line class="st3" x1="120" y1="0" x2="120" y2="1080"/>
		<line class="st3" x1="320" y1="0" x2="320" y2="1080"/>
		<line class="st3" x1="1600" y1="1080" x2="1600" y2="0"/>
		<line class="st3" x1="384" y1="0" x2="384" y2="1080"/>
		<line class="st3" x1="1536" y1="0" x2="1536" y2="1080"/>
		<line class="st3" x1="1920" y1="720" x2="0" y2="720"/>
	</g>
</svg>
