<svg xmlns="http://www.w3.org/2000/svg" viewBox="0 0 30.769 27.777">
  <defs>
    <style>
      .cls-1, .cls-2 {
        fill: #ccc;
      }

      .cls-1, .cls-5 {
        stroke: #212d59;
      }

      .cls-1, .cls-5, .cls-8 {
        stroke-miterlimit: 10;
        stroke-width: 1.5px;
      }

      .cls-3 {
        fill: #e6e6e6;
      }

      .cls-4 {
        fill: #fff;
      }

      .cls-5, .cls-8 {
        fill: none;
      }

      .cls-6, .cls-7 {
        fill: #212d59;
      }

      .cls-7 {
        font-size: 15px;
        font-family: Helvetica;
      }

      .cls-8 {
        stroke: #ccc;
        stroke-linecap: round;
      }
    </style>
  </defs>
  <g id="credit" transform="translate(-238.986 -3.132)">
    <g id="XMLID_2_" transform="translate(239.4 3.8)">
      <g id="Group_5" data-name="Group 5">
        <path id="Path_23" data-name="Path 23" class="cls-1" d="M267.934,45.8h.176a.928.928,0,0,1,.939.939h0V47.5H240.4v-.763h0a.928.928,0,0,1,.939-.939h26.595Z" transform="translate(-239.813 -21.142)"/>
        <path id="Path_24" data-name="Path 24" class="cls-2" d="M276.294,42.9h4.7l.235.294a.449.449,0,0,1,.117.294v.7H276v-.7c0-.117.059-.176.117-.294Z" transform="translate(-254.513 -19.945)"/>
        <path id="Path_25" data-name="Path 25" class="cls-3" d="M281.2,34.435h-4.7l.352-1.057V22.4h3.992V33.378Z" transform="translate(-254.719 -11.48)"/>
        <path id="Path_26" data-name="Path 26" class="cls-2" d="M280.638,21h-4.227a.4.4,0,0,1-.411-.411V19h5.342v1.585a.4.4,0,0,1-.411.411Z" transform="translate(-254.513 -10.076)"/>
        <path id="Path_27" data-name="Path 27" class="cls-4" d="M252.852,21a.4.4,0,0,0,.411-.411V19H266.3v1.585a.4.4,0,0,0,.411.411h.235v10.92l-.352,1.057-.235.294a.448.448,0,0,0-.117.294v.7H253.2v-.7c0-.117-.059-.176-.117-.294l-.235-.294-.352-1.057V21Z" transform="translate(-244.809 -10.076)"/>
        <path id="Path_28" data-name="Path 28" class="cls-3" d="M245.2,34.435l.352-1.057V22.4h3.992V33.378l.352,1.057Z" transform="translate(-241.795 -11.48)"/>
        <path id="Path_29" data-name="Path 29" class="cls-2" d="M250.042,44.192H244.7v-.7c0-.117.059-.176.117-.294l.235-.294h4.7l.235.294a.449.449,0,0,1,.117.294Z" transform="translate(-241.588 -19.945)"/>
        <path id="Path_30" data-name="Path 30" class="cls-2" d="M249.338,21h-4.227a.4.4,0,0,1-.411-.411V19h5.342v1.585a.4.4,0,0,1-.411.411Z" transform="translate(-241.588 -10.076)"/>
        <path id="Path_31" data-name="Path 31" class="cls-2" d="M269.4,10.962l-.881,1.761h-28.18l-.939-1.761L254.429,3.8Zm-25.773,0h21.487L254.371,5.914Z" transform="translate(-239.4 -3.8)"/>
      </g>
      <g id="Group_6" data-name="Group 6" transform="translate(0.342 0.088)">
        <path id="Path_32" data-name="Path 32" class="cls-5" d="M244.659,19v1.585a.4.4,0,0,0,.411.411h.235v10.92l-.352,1.057-.235.294a.449.449,0,0,0-.117.294v.7" transform="translate(-241.89 -10.164)"/>
        <path id="Path_33" data-name="Path 33" class="cls-5" d="M253.346,19v1.585a.4.4,0,0,1-.411.411H252.7v10.92l.352,1.057.235.294a.449.449,0,0,1,.117.294v.7" transform="translate(-245.234 -10.164)"/>
        <path id="Path_34" data-name="Path 34" class="cls-5" d="M241.989,12.786h26.067A1.046,1.046,0,0,0,269,12.2l.117-.235a1.006,1.006,0,0,0-.47-1.409L255.081,4.038a1.3,1.3,0,0,0-.939,0L240.58,10.555a1.006,1.006,0,0,0-.47,1.409l.117.235a1.046,1.046,0,0,0,.939.587Z" transform="translate(-239.983 -3.95)"/>
        <path id="Path_35" data-name="Path 35" class="cls-5" d="M284.646,19v1.585a.4.4,0,0,1-.411.411H284v10.92l.352,1.057.235.294a.449.449,0,0,1,.117.294v.7" transform="translate(-258.158 -10.164)"/>
        <path id="Path_36" data-name="Path 36" class="cls-5" d="M275.959,19v1.585a.4.4,0,0,0,.411.411h.235v10.92l-.352,1.057-.235.294a.448.448,0,0,0-.117.294v.7" transform="translate(-254.814 -10.164)"/>
        <path id="Path_37" data-name="Path 37" class="cls-6" d="M265.214,11.757a1.053,1.053,0,1,1-.308-.748,1.057,1.057,0,0,1,.308.748Z" transform="translate(-249.529 -6.737)"/>
      </g>
    </g>
    <text id="_" data-name="€" class="cls-7" transform="translate(248.647 25.746)"><tspan x="0" y="0">€</tspan></text>
    <line id="Line_6" data-name="Line 6" class="cls-8" y2="8.924" transform="translate(245.153 15.894)"/>
    <line id="Line_7" data-name="Line 7" class="cls-8" y2="8.924" transform="translate(263.529 15.894)"/>
  </g>
</svg>
