<svg xmlns="http://www.w3.org/2000/svg" viewBox="-6001.5 527 29.625 25">
  <defs>
    <style>
      .cls-1 {
        fill: #212d59;
      }
    </style>
  </defs>
  <g id="icone-emprunt" transform="translate(-6004 520)">
    <path id="Path_1" data-name="Path 1" class="cls-1" d="M32.118,20.755a2.16,2.16,0,0,1-.653,1.707L21.677,31.2a2.985,2.985,0,0,1-2.008.8,2.843,2.843,0,0,1-.9-.151L9.076,28.486l-1.807.9v.2a1.222,1.222,0,0,1-1.2,1.2H3.1a.58.58,0,0,1-.6-.6.61.61,0,0,1,.6-.6H6.064V18.948H3.1a.6.6,0,0,1,0-1.2H6.064a1.186,1.186,0,0,1,1.155,1l4.016-1c.1-.05.2,0,.351,0L17.41,19.7a2.536,2.536,0,0,1,1.707,2.359,2.678,2.678,0,0,1-.753,1.807l1.857.351,8.584-5.171a2.112,2.112,0,0,1,2.46.1,2.231,2.231,0,0,1,.853,1.609Zm-1.2.05a.8.8,0,0,0-.4-.7.99.99,0,0,0-1.1-.05l-8.835,5.321a.393.393,0,0,1-.4.05L14.3,24.269h0a.582.582,0,1,1,.151-1.155l2.008.3a1.323,1.323,0,0,0,1.054-.3,1.264,1.264,0,0,0,.452-1,1.342,1.342,0,0,0-.9-1.255L11.386,19,7.269,20.052v8.032l1.506-.753a.709.709,0,0,1,.452-.05l9.94,3.464a1.767,1.767,0,0,0,1.757-.4l9.739-8.785a.829.829,0,0,0,.251-.755ZM19.869,10.564H22.63a.452.452,0,1,1,0,.9H19.669c0,.151-.05.3-.05.452s.05.3.05.452h2.962a.452.452,0,1,1,0,.9H19.869a3.662,3.662,0,0,0,3.464,2.56,3.586,3.586,0,0,0,2.46-1,.426.426,0,1,1,.6.6,4.369,4.369,0,0,1-3.062,1.2,4.51,4.51,0,0,1-4.367-3.464h-.653a.452.452,0,1,1,0-.9h.452v-.9h-.452a.452.452,0,1,1,0-.9h.6A4.6,4.6,0,0,1,23.283,7a4.7,4.7,0,0,1,3.062,1.2.426.426,0,0,1-.6.6,3.586,3.586,0,0,0-2.46-1A4.064,4.064,0,0,0,19.869,10.564Z"/>
    <path id="Path_2" data-name="Path 2" class="cls-1" d="M19.669,32a2.843,2.843,0,0,1-.9-.151L9.076,28.486l-1.807.9v.2a1.222,1.222,0,0,1-1.2,1.2H3.1a.58.58,0,0,1-.6-.6.61.61,0,0,1,.6-.6H6.064V18.948H3.1a.6.6,0,0,1,0-1.2H6.064a1.186,1.186,0,0,1,1.155,1l4.016-1a.221.221,0,0,1,.1-.022c.071,0,.149.022.249.022L17.41,19.7a2.536,2.536,0,0,1,1.707,2.359,2.678,2.678,0,0,1-.753,1.807l1.857.351,8.584-5.171a2.081,2.081,0,0,1,1.156-.347,2.112,2.112,0,0,1,1.3.448,2.231,2.231,0,0,1,.853,1.606,2.16,2.16,0,0,1-.653,1.707L21.677,31.2A2.985,2.985,0,0,1,19.669,32ZM9.095,27.26a.414.414,0,0,1,.132.021l9.94,3.464a1.69,1.69,0,0,0,.535.087,1.827,1.827,0,0,0,1.222-.489l9.739-8.785a.829.829,0,0,0,.251-.753.8.8,0,0,0-.4-.7,1.04,1.04,0,0,0-.6-.2.9.9,0,0,0-.5.145l-8.835,5.321a.342.342,0,0,1-.239.083.377.377,0,0,1-.162-.033L14.3,24.269a.6.6,0,0,1-.5-.653.617.617,0,0,1,.575-.508.474.474,0,0,1,.078.006l2.008.3a1.585,1.585,0,0,0,.2.013,1.3,1.3,0,0,0,.858-.314,1.264,1.264,0,0,0,.452-1,1.342,1.342,0,0,0-.9-1.255L11.386,19,7.269,20.052v8.032l1.506-.753A1.036,1.036,0,0,1,9.095,27.26ZM23.333,16.639a4.51,4.51,0,0,1-4.367-3.464h-.653a.452.452,0,1,1,0-.9h.452v-.9h-.452a.452.452,0,1,1,0-.9h.6A4.6,4.6,0,0,1,23.283,7a4.7,4.7,0,0,1,3.062,1.2.41.41,0,0,1,0,.6.474.474,0,0,1-.325.132.336.336,0,0,1-.277-.132,3.586,3.586,0,0,0-2.46-1,4.064,4.064,0,0,0-3.414,2.761h2.761a.452.452,0,1,1,0,.9H19.669c0,.151-.05.3-.05.452s.05.3.05.452h2.962a.452.452,0,1,1,0,.9H19.869a3.662,3.662,0,0,0,3.464,2.56,3.586,3.586,0,0,0,2.46-1,.458.458,0,0,1,.6,0,.458.458,0,0,1,0,.6A4.369,4.369,0,0,1,23.333,16.639Z"/>
  </g>
</svg>
