<svg xmlns="http://www.w3.org/2000/svg" viewBox="0 0 32.658 32.526">
  <defs>
    <style>
      .cls-1 {
        fill: #fff;
      }

      .cls-1, .cls-2, .cls-3 {
        stroke: #36497b;
        stroke-miterlimit: 10;
        stroke-width: 1.5px;
      }

      .cls-2, .cls-3 {
        fill: none;
      }

      .cls-3 {
        stroke-linecap: round;
      }
    </style>
  </defs>
  <g id="prestataires" transform="translate(-481.432 -1.532)">
    <path id="Path_6" data-name="Path 6" class="cls-1" d="M512.662,33.865l-21.153-1.447a1.431,1.431,0,0,1-1.309-1.447l1.723-25.562A1.431,1.431,0,0,1,493.369,4.1l21.152,1.447a1.431,1.431,0,0,1,1.309,1.447l-1.722,25.631a1.333,1.333,0,0,1-1.447,1.24Z" transform="translate(-2.491 -0.563)"/>
    <path id="Path_7" data-name="Path 7" class="cls-1" d="M507.139,31.1l-21.153,1.86a1.39,1.39,0,0,1-1.516-1.24L482.2,5.673a1.39,1.39,0,0,1,1.24-1.516L504.59,2.3a1.39,1.39,0,0,1,1.516,1.24l2.274,26.044a1.39,1.39,0,0,1-1.24,1.516Z" transform="translate(0)"/>
    <g id="XMLID_4_" transform="translate(487.808 9.325)">
      <g id="Group_2" data-name="Group 2">
        <path id="Path_14" data-name="Path 14" class="cls-2" d="M499.63,12.569c2.48.345,3.514,2.343,3.721,4.892.276,2.963-1.654,5.512-4.2,5.719a4.433,4.433,0,0,1-3.652-1.516,5.873,5.873,0,0,1-1.516-3.445c-.276-2.963.689-5.443,4.2-5.719C498.734,12.5,499.216,12.569,499.63,12.569Z" transform="translate(-491.461 -12.5)"/>
        <path id="Path_15" data-name="Path 15" class="cls-2" d="M502.509,32.1c3.514.827,5.03,3.445,5.305,6.683.138,1.723-2.618,2-5.994,2.274-.758.069-1.585.138-2.412.207-4.341.413-8.819,1.171-9.026-.965-.276-3.307.9-6.2,4.41-7.579a10.993,10.993,0,0,1,3.583-.758,11.644,11.644,0,0,1,3.514.138.655.655,0,0,1,.62,0Z" transform="translate(-490.344 -18.531)"/>
      </g>
    </g>
    <line id="Line_4" data-name="Line 4" class="cls-3" y1="0.689" x2="8.406" transform="translate(490.052 5.673)"/>
  </g>
</svg>
