<svg xmlns="http://www.w3.org/2000/svg" viewBox="-1505.507 1791.493 29.012 33.775">
  <defs>
    <style>
      .cls-1, .cls-2 {
        fill: none;
        stroke: #212d59;
        stroke-miterlimit: 10;
      }

      .cls-2 {
        stroke-linecap: round;
      }

      .cls-3 {
        fill: #212d59;
      }
    </style>
  </defs>
  <g id="todolist" transform="translate(-1592.997 1791.203)">
    <path id="Path_2" data-name="Path 2" class="cls-1" d="M112.784,30.475,96.841,33.489a3.958,3.958,0,0,1-4.622-3.148L88.066,8.5A3.958,3.958,0,0,1,91.214,3.88L107.157.866a3.958,3.958,0,0,1,4.622,3.148l4.153,21.838a3.993,3.993,0,0,1-3.148,4.622Z" transform="translate(0)"/>
    <line id="Line_1" data-name="Line 1" class="cls-2" y1="1.474" x2="7.838" transform="translate(100.325 6.895)"/>
    <line id="Line_2" data-name="Line 2" class="cls-2" y1="1.474" x2="7.838" transform="translate(101.999 15.67)"/>
    <line id="Line_3" data-name="Line 3" class="cls-2" y1="1.474" x2="7.838" transform="translate(103.674 24.446)"/>
    <path id="Path_3" data-name="Path 3" class="cls-3" d="M97,14.775l-.938.134a1.645,1.645,0,0,1-1.876-1.273l-.2-.871a1.645,1.645,0,0,1,1.273-1.876l.871-.2a1.645,1.645,0,0,1,1.876,1.273l.2.871A1.635,1.635,0,0,1,97,14.775Z" transform="translate(-1.971 -3.258)"/>
    <path id="Path_4" data-name="Path 4" class="cls-3" d="M99.536,27.908l-.871.2a1.645,1.645,0,0,1-1.876-1.273l-.2-.871a1.645,1.645,0,0,1,1.273-1.876l.871-.2a1.645,1.645,0,0,1,1.876,1.273l.2.871a1.645,1.645,0,0,1-1.273,1.876Z" transform="translate(-2.829 -7.616)"/>
    <path id="Path_5" data-name="Path 5" class="cls-3" d="M102.036,40.908l-.871.2a1.645,1.645,0,0,1-1.876-1.273l-.2-.871a1.645,1.645,0,0,1,1.273-1.876l.871-.2a1.645,1.645,0,0,1,1.876,1.273l.2.871a1.608,1.608,0,0,1-1.273,1.876Z" transform="translate(-3.654 -11.907)"/>
  </g>
</svg>
