<svg xmlns="http://www.w3.org/2000/svg" viewBox="6035 5857 237.528 259">
  <defs>
    <style>
      .cls-1, .cls-2, .cls-3, .cls-7 {
        fill: none;
      }

      .cls-1 {
        opacity: 0.771;
      }

      .cls-3 {
        stroke: #55e6c1;
        stroke-width: 6px;
      }

      .cls-4, .cls-5, .cls-6 {
        stroke: none;
      }

      .cls-5 {
        fill: #0bf;
      }

      .cls-6 {
        fill: #fea47f;
      }
    </style>
  </defs>
  <g id="Group_75" data-name="Group 75" transform="translate(6074 5333)">
    <g id="Path_76" data-name="Path 76" class="cls-1" transform="translate(-39 639)">
      <path class="cls-4" d="M72,0A72,72,0,1,1,0,72,72,72,0,0,1,72,0Z"/>
      <path class="cls-5" d="M 72 136 C 107.2897109985352 136 136 107.2897109985352 136 72 C 136 36.71028900146484 107.2897109985352 8 72 8 C 36.71028900146484 8 8 36.71028900146484 8 72 C 8 107.2897109985352 36.71028900146484 136 72 136 M 72 144 C 32.23550033569336 144 0 111.7645034790039 0 72 C 0 32.23550033569336 32.23550033569336 0 72 0 C 111.7645034790039 0 144 32.23550033569336 144 72 C 144 111.7645034790039 111.7645034790039 144 72 144 Z"/>
    </g>
    <g id="Path_77" data-name="Path 77" class="cls-2" transform="translate(85 524)">
      <path class="cls-4" d="M20.5,0A20.5,20.5,0,1,1,0,20.5,20.5,20.5,0,0,1,20.5,0Z"/>
      <path class="cls-6" d="M 20.5 35 C 28.49532890319824 35 35 28.49532890319824 35 20.5 C 35 12.50467014312744 28.49532890319824 6 20.5 6 C 12.50467014312744 6 6 12.50467014312744 6 20.5 C 6 28.49532890319824 12.50467014312744 35 20.5 35 M 20.5 41 C 9.178164482116699 41 0 31.82183456420898 0 20.5 C 0 9.178164482116699 9.178164482116699 0 20.5 0 C 31.82183456420898 0 41 9.178164482116699 41 20.5 C 41 31.82183456420898 31.82183456420898 41 20.5 41 Z"/>
    </g>
    <g id="Rectangle_90" data-name="Rectangle 90" class="cls-3" transform="matrix(0.966, -0.259, 0.259, 0.966, 165.46, 681.13)">
      <rect class="cls-4" width="27" height="27"/>
      <rect class="cls-7" x="3" y="3" width="21" height="21"/>
    </g>
  </g>
</svg>
