<svg xmlns="http://www.w3.org/2000/svg" viewBox="0 0 64.005 62.416">
  <defs>
    <style>
      .cls-1, .cls-3 {
        fill: #fff;
      }

      .cls-2, .cls-3 {
        stroke: none;
      }
    </style>
  </defs>
  <g id="heart" class="cls-1" transform="translate(5.999 4.174)">
    <path class="cls-2" d="M 25.82585906982422 54.20658111572266 L 23.82693862915039 52.39260101318359 L 5.711938858032227 35.9536018371582 C 1.629948973655701 32.25495910644531 -1.172521114349365 27.5704517364502 -2.390801191329956 22.40804100036621 C -3.204106330871582 18.96453285217285 -3.00417160987854 16.65823554992676 -2.892197608947754 15.87799072265625 C -2.447158098220825 11.18858242034912 -0.5395243763923645 6.904380321502686 2.48521900177002 3.805330753326416 C 5.619188785552979 0.5943608283996582 9.76465892791748 -1.173999190330505 14.15799903869629 -1.173999190330505 C 18.6335620880127 -1.173999190330505 22.7989559173584 0.6464176177978516 25.8872241973877 3.836899280548096 C 26.94917106628418 2.768988370895386 28.14620208740234 1.842703104019165 29.44686889648438 1.089170813560486 C 32.00135803222656 -0.3907591700553894 34.9033088684082 -1.172999143600464 37.8390007019043 -1.172999143600464 C 42.23265838623047 -1.172999143600464 46.3783073425293 0.5953608155250549 49.51227951049805 3.806330919265747 C 52.53731155395508 6.905683040618896 54.4453125 11.19133281707764 54.89044570922852 15.88179206848145 C 55.00066375732422 16.65886878967285 55.19965744018555 18.97175407409668 54.38761901855469 22.40879058837891 C 53.17001724243164 27.56949043273926 50.36764907836914 32.25429153442383 46.28368759155273 35.95584106445312 L 46.27494049072266 35.96377944946289 L 46.26611709594727 35.97164154052734 L 27.84011840820312 52.40964126586914 L 25.82585906982422 54.20658111572266 Z"/>
    <path class="cls-3" d="M 14.15800476074219 1.825992584228516 C 6.758991241455078 1.825992584228516 0.8450050354003906 7.886993408203125 0.087005615234375 16.24099349975586 C 0.02700424194335938 16.60999298095703 -0.2190093994140625 18.55200576782227 0.52899169921875 21.71900749206543 C 1.606990814208984 26.28700828552246 4.097003936767578 30.44200706481934 7.728004455566406 33.73200988769531 L 25.84299278259277 50.17099380493164 L 44.26899337768555 33.73300933837891 C 47.89999389648438 30.44200706481934 50.38999176025391 26.28800773620605 51.46799087524414 21.71900749206543 C 52.21599197387695 18.55300903320312 51.97000503540039 16.61099243164062 51.91099166870117 16.24199295043945 C 51.15200424194336 7.887992858886719 45.23899078369141 1.826995849609375 37.83900451660156 1.826995849609375 C 32.90900421142578 1.826995849609375 28.39500617980957 4.479995727539062 25.85500526428223 8.732006072998047 C 23.33800506591797 4.424995422363281 19.00899124145508 1.825992584228516 14.15800476074219 1.825992584228516 M 14.15800476074219 -4.174007415771484 C 18.49775695800781 -4.174007415771484 22.58687973022461 -2.735240936279297 25.92643928527832 -0.1498146057128906 C 29.33723831176758 -2.713897705078125 33.51395034790039 -4.173004150390625 37.83900451660156 -4.173004150390625 C 48.40909957885742 -4.173004150390625 56.84023284912109 4.184421539306641 57.88637924194336 15.69911575317383 C 57.99535369873047 16.29268646240234 58.26343154907227 19.0513801574707 57.30723190307617 23.09859466552734 C 55.94973754882812 28.85219383239746 52.83439254760742 34.06742095947266 48.29837799072266 38.17868804931641 L 29.83721923828125 54.64828872680664 L 25.80871200561523 58.24215316772461 L 21.81087303161621 54.61419296264648 L 3.695884704589844 38.17520904541016 C -0.83660888671875 34.06838226318359 -3.952182769775391 28.85338020324707 -5.31060791015625 23.09708786010742 C -6.270633697509766 19.03237915039062 -5.997299194335938 16.27487564086914 -5.835220336914062 15.27803421020508 C -4.843620300292969 4.183727264404297 3.587123870849609 -4.174007415771484 14.15800476074219 -4.174007415771484 Z"/>
  </g>
</svg>
