<svg xmlns="http://www.w3.org/2000/svg" xmlns:xlink="http://www.w3.org/1999/xlink" viewBox="0 0 96 96">
  <defs>
    <style>
      .cls-1 {
        stroke: #31bdfc;
        fill: url(#linear-gradient);
      }

      .cls-2 {
        fill: #fff;
      }

      .cls-3 {
        stroke: none;
      }

      .cls-4 {
        fill: none;
      }

      .cls-5 {
        filter: url(#Union_8);
      }
    </style>
    <linearGradient id="linear-gradient" x1="0.875" y1="1" x2="0.842" gradientUnits="objectBoundingBox">
      <stop offset="0" stop-color="#30bdfc"/>
      <stop offset="1" stop-color="#00d3f7"/>
    </linearGradient>
    <filter id="Union_8" x="23.192" y="13.104" width="57.231" height="74.986" filterUnits="userSpaceOnUse">
      <feOffset dy="3" input="SourceAlpha"/>
      <feGaussianBlur stdDeviation="3" result="blur"/>
      <feFlood flood-opacity="0.161"/>
      <feComposite operator="in" in2="blur"/>
      <feComposite in="SourceGraphic"/>
    </filter>
  </defs>
  <g id="Group_35" data-name="Group 35" transform="translate(-897 -1147)">
    <g id="Ellipse_2" data-name="Ellipse 2" class="cls-1" transform="translate(897 1147)">
      <circle class="cls-3" cx="48" cy="48" r="48"/>
      <circle class="cls-4" cx="48" cy="48" r="47.5"/>
    </g>
    <g class="cls-5" transform="matrix(1, 0, 0, 1, 897, 1147)">
      <path id="Union_8-2" data-name="Union 8" class="cls-2" d="M1.541,54.635a6.585,6.585,0,0,1,.812-9.277l20.1-16.864L2.353,11.629A6.584,6.584,0,0,1,10.817,1.541L36.878,23.409a6.671,6.671,0,0,1,0,10.169L10.817,55.445a6.583,6.583,0,0,1-9.276-.811Z" transform="translate(32.19 19.1)"/>
    </g>
  </g>
</svg>
