<svg xmlns="http://www.w3.org/2000/svg" viewBox="0 0 175 164.996">
  <defs>
    <style>
      .cls-1 {
        fill: rgba(226,246,255,0.41);
      }

      .cls-2, .cls-3 {
        stroke: none;
      }

      .cls-3 {
        fill: #31bdfc;
      }
    </style>
  </defs>
  <g id="Union_1" data-name="Union 1" class="cls-1" transform="translate(20377.002 2147.998)">
    <path class="cls-2" d="M -20210 -1985.001831054688 L -20368 -1985.001831054688 C -20369.78125 -1985.001831054688 -20371.45703125 -1985.784790039062 -20372.6015625 -1987.150024414062 L -20372.71484375 -1987.285278320312 L -20372.849609375 -1987.398559570312 C -20374.216796875 -1988.544677734375 -20375.001953125 -1990.222778320312 -20375.001953125 -1992.002319335938 L -20375.001953125 -2140.000244140625 C -20375.001953125 -2143.3076171875 -20372.30859375 -2145.998291015625 -20368.998046875 -2145.998291015625 L -20300 -2145.998291015625 C -20296.693359375 -2145.998291015625 -20294.001953125 -2143.3076171875 -20294.001953125 -2140.000244140625 L -20294.001953125 -2057.000732421875 L -20294.001953125 -2055.000732421875 L -20292.001953125 -2055.000732421875 L -20210 -2055.000732421875 C -20206.693359375 -2055.000732421875 -20204.001953125 -2052.309814453125 -20204.001953125 -2049.00244140625 L -20204.001953125 -1991 C -20204.001953125 -1987.692626953125 -20206.693359375 -1985.001831054688 -20210 -1985.001831054688 Z"/>
    <path class="cls-3" d="M -20210 -1987.001831054688 C -20207.794921875 -1987.001831054688 -20206.001953125 -1988.79541015625 -20206.001953125 -1991 L -20206.001953125 -2049.00244140625 C -20206.001953125 -2051.20703125 -20207.794921875 -2053.000732421875 -20210 -2053.000732421875 L -20292.001953125 -2053.000732421875 L -20296.001953125 -2053.000732421875 L -20296.001953125 -2057.000732421875 L -20296.001953125 -2140.000244140625 C -20296.001953125 -2142.204833984375 -20297.794921875 -2143.998291015625 -20300 -2143.998291015625 L -20368.998046875 -2143.998291015625 C -20371.205078125 -2143.998291015625 -20373.001953125 -2142.204833984375 -20373.001953125 -2140.000244140625 L -20373.001953125 -1992.002319335938 C -20373.001953125 -1990.81591796875 -20372.478515625 -1989.696533203125 -20371.564453125 -1988.931396484375 L -20371.294921875 -1988.704833984375 L -20371.068359375 -1988.434448242188 C -20370.306640625 -1987.524047851562 -20369.1875 -1987.001831054688 -20368 -1987.001831054688 L -20210 -1987.001831054688 M -20210 -1983.001831054688 L -20368 -1983.001831054688 C -20370.46484375 -1983.001831054688 -20372.66796875 -1984.114868164062 -20374.134765625 -1985.86572265625 C -20375.88671875 -1987.334106445312 -20377.001953125 -1989.53857421875 -20377.001953125 -1992.002319335938 L -20377.001953125 -2140.000244140625 C -20377.001953125 -2144.418701171875 -20373.416015625 -2147.998291015625 -20368.998046875 -2147.998291015625 L -20300 -2147.998291015625 C -20295.58203125 -2147.998291015625 -20292.001953125 -2144.418701171875 -20292.001953125 -2140.000244140625 L -20292.001953125 -2057.000732421875 L -20210 -2057.000732421875 C -20205.58203125 -2057.000732421875 -20202.001953125 -2053.415771484375 -20202.001953125 -2049.00244140625 L -20202.001953125 -1991 C -20202.001953125 -1986.58154296875 -20205.58203125 -1983.001831054688 -20210 -1983.001831054688 Z"/>
  </g>
</svg>
