<svg xmlns="http://www.w3.org/2000/svg" viewBox="0 0 32 22.261">
  <defs>
    <style>
      .cls-1 {
        fill: #0bf;
      }
    </style>
  </defs>
  <g id="bed" transform="translate(-2 -9)">
    <path id="Path_206" data-name="Path 206" class="cls-1" d="M31.217,20.386V9.7a.7.7,0,1,0-1.391,0v2.087H6.174V9.7a.7.7,0,1,0-1.391,0v10.69A4.162,4.162,0,0,0,2,24.3v6.261a.7.7,0,0,0,1.391,0v-.7H32.609v.7a.7.7,0,0,0,1.391,0V24.3A4.162,4.162,0,0,0,31.217,20.386ZM6.174,13.174H29.826V20.13H28.435a2.783,2.783,0,0,0-2.783-2.783H21.478A2.783,2.783,0,0,0,18.7,20.13H17.3a2.783,2.783,0,0,0-2.783-2.783H10.348A2.783,2.783,0,0,0,7.565,20.13H6.174Zm20.87,6.957H20.087a1.393,1.393,0,0,1,1.391-1.391h4.174a1.393,1.393,0,0,1,1.391,1.391Zm-11.13,0H8.957a1.393,1.393,0,0,1,1.391-1.391h4.174A1.393,1.393,0,0,1,15.913,20.13Zm16.7,8.348H3.391V24.3a2.786,2.786,0,0,1,2.783-2.783H29.826A2.786,2.786,0,0,1,32.609,24.3Z"/>
  </g>
</svg>
