<svg xmlns="http://www.w3.org/2000/svg" viewBox="0 0 44.67 21.441">
  <defs>
    <style>
      .cls-1 {
        fill: none;
      }

      .cls-2, .cls-3 {
        stroke: none;
      }

      .cls-3 {
        fill: #0bf;
      }
    </style>
  </defs>
  <g id="indoor-seat" transform="translate(0 -7)">
    <g id="Path_210" data-name="Path 210" class="cls-1" transform="translate(0 0)">
      <path class="cls-2" d="M16.975,15.934H5.251A18.639,18.639,0,0,0,1.581,9.111.894.894,0,1,0,.2,10.25c.937,1.133,3.369,4.525,3.369,6.577V27.548a.893.893,0,0,0,1.787,0V23.081H16.081v4.467a.893.893,0,0,0,1.787,0V16.827A.893.893,0,0,0,16.975,15.934Zm-.893,5.36H5.361V17.721H16.081Zm28.263-12.3a.891.891,0,0,0-1.256.119,18.639,18.639,0,0,0-3.67,6.823H27.7a.893.893,0,0,0-.893.893V27.548a.893.893,0,0,0,1.787,0V23.081H39.309v4.467a.893.893,0,0,0,1.787,0V16.827c0-2.052,2.432-5.444,3.369-6.577A.893.893,0,0,0,44.344,8.992Zm-5.035,12.3H28.588V17.721H39.309ZM32.162,10.574V8.787A1.787,1.787,0,0,0,30.375,7H14.294a1.787,1.787,0,0,0-1.787,1.787v1.787a1.787,1.787,0,0,0,1.787,1.787h7.147V27.548a.893.893,0,0,0,1.787,0V12.36h7.147A1.787,1.787,0,0,0,32.162,10.574Zm-17.868,0V8.787H30.375v1.787Z"/>
      <path class="cls-3" d="M 14.29444122314453 7.000001907348633 L 30.37520217895508 7.000001907348633 C 31.36200141906738 7.000001907348633 32.16196060180664 7.799951553344727 32.16196060180664 8.786752700805664 L 32.16196060180664 10.57350158691406 C 32.16196060180664 11.560302734375 31.36200141906738 12.36025238037109 30.37520217895508 12.36025238037109 L 23.22820091247559 12.36025238037109 L 23.22820091247559 27.54764175415039 C 23.22820091247559 28.04104232788086 22.82822036743164 28.4410228729248 22.3348217010498 28.4410228729248 C 21.84142112731934 28.4410228729248 21.44145011901855 28.04104232788086 21.44145011901855 27.54764175415039 L 21.44145011901855 12.36025238037109 L 14.29444122314453 12.36025238037109 C 13.30764007568359 12.36025238037109 12.5076904296875 11.560302734375 12.5076904296875 10.57350158691406 L 12.5076904296875 8.786752700805664 C 12.5076904296875 7.799951553344727 13.30764007568359 7.000001907348633 14.29444122314453 7.000001907348633 Z M 30.37520217895508 10.57350158691406 L 30.37520217895508 8.786752700805664 L 14.29444122314453 8.786752700805664 L 14.29444122314453 10.57350158691406 L 30.37520217895508 10.57350158691406 Z M 43.77550888061523 8.786529541015625 C 43.98235321044922 8.786539077758789 44.18380737304688 8.858566284179688 44.34437942504883 8.991691589355469 C 44.72524261474609 9.30571174621582 44.77925109863281 9.869081497192383 44.46498107910156 10.24974250793457 C 43.52802276611328 11.38308334350586 41.09571075439453 14.77522277832031 41.09571075439453 16.82713317871094 L 41.09571075439453 27.54764175415039 C 41.09571075439453 28.04104232788086 40.69573211669922 28.4410228729248 40.20233154296875 28.4410228729248 C 39.70894241333008 28.4410228729248 39.3089599609375 28.04104232788086 39.3089599609375 27.54764175415039 L 39.3089599609375 23.08076286315918 L 28.58845138549805 23.08076286315918 L 28.58845138549805 27.54764175415039 C 28.58845138549805 28.04104232788086 28.18848037719727 28.4410228729248 27.69508171081543 28.4410228729248 C 27.20168113708496 28.4410228729248 26.80170059204102 28.04104232788086 26.80170059204102 27.54764175415039 L 26.80170059204102 16.82713317871094 C 26.80170059204102 16.33373260498047 27.20168113708496 15.93376159667969 27.69508171081543 15.93376159667969 L 39.41849136352539 15.93376159667969 C 40.15027236938477 13.4273624420166 41.40048980712891 11.10268211364746 43.08811187744141 9.110332489013672 C 43.23884201049805 8.927812576293945 43.45598220825195 8.812732696533203 43.691650390625 8.790481567382812 C 43.71965789794922 8.787837982177734 43.74761199951172 8.786527633666992 43.77550888061523 8.786529541015625 Z M 39.3089599609375 21.29401206970215 L 39.3089599609375 17.72051239013672 L 28.58845138549805 17.72051239013672 L 28.58845138549805 21.29401206970215 L 39.3089599609375 21.29401206970215 Z M 0.8925056457519531 8.786670684814453 C 1.149528503417969 8.786693572998047 1.404670715332031 8.897043228149414 1.581340789794922 9.110511779785156 C 3.268882751464844 11.10282325744629 4.519039154052734 13.42744255065918 5.250801086425781 15.93376159667969 L 16.97456169128418 15.93376159667969 C 17.46796035766602 15.93376159667969 17.86794090270996 16.33373260498047 17.86794090270996 16.82713317871094 L 17.86794090270996 27.54764175415039 C 17.86794090270996 28.04104232788086 17.46796035766602 28.4410228729248 16.97456169128418 28.4410228729248 C 16.48117065429688 28.4410228729248 16.08119010925293 28.04104232788086 16.08119010925293 27.54764175415039 L 16.08119010925293 23.08076286315918 L 5.360679626464844 23.08076286315918 L 5.360679626464844 27.54764175415039 C 5.360679626464844 28.04104232788086 4.960700988769531 28.4410228729248 4.467311859130859 28.4410228729248 C 3.973911285400391 28.4410228729248 3.573932647705078 28.04104232788086 3.573932647705078 27.54764175415039 L 3.573932647705078 16.82713317871094 C 3.573932647705078 14.77522277832031 1.141632080078125 11.38308334350586 0.20465087890625 10.24992179870605 C -0.1099891662597656 9.869762420654297 -0.0568695068359375 9.306512832641602 0.3232917785644531 8.991872787475586 C 0.4899864196777344 8.853910446166992 0.691802978515625 8.786653518676758 0.8925056457519531 8.786670684814453 Z M 16.08119010925293 21.29401206970215 L 16.08119010925293 17.72051239013672 L 5.360679626464844 17.72051239013672 L 5.360679626464844 21.29401206970215 L 16.08119010925293 21.29401206970215 Z"/>
    </g>
  </g>
</svg>
