<svg xmlns="http://www.w3.org/2000/svg" viewBox="0 0 28.999 29">
  <defs>
    <style>
      .cls-1 {
        fill: #0bf;
      }
    </style>
  </defs>
  <g id="graphic-design" transform="translate(-0.006)">
    <g id="Group_22" data-name="Group 22" transform="translate(0.006 0)">
      <path id="Path_209" data-name="Path 209" class="cls-1" d="M28.6,4.112,24.893.4a1.387,1.387,0,0,0-1.959,0L15.954,7.385a.448.448,0,0,0,.633.633l6.981-6.981a.49.49,0,0,1,.693,0l3.708,3.708a.49.49,0,0,1,0,.693l-.91.91L24.674,3.964a.448.448,0,0,0-.633.633l2.384,2.384-1.04,1.04L24.338,6.973a.448.448,0,0,0-.633.633l1.048,1.048-1.04,1.04L22.665,8.645a.448.448,0,0,0-.633.633l1.048,1.048-1.04,1.04L19.656,8.982a.448.448,0,1,0-.633.633L21.407,12l-1.04,1.04L19.32,11.99a.448.448,0,0,0-.633.633l1.048,1.048-.879.879-4.4-4.4.818-.819a.448.448,0,1,0-.633-.633l-.819.819L5.566,1.261a3.04,3.04,0,0,0-4.3,4.3l8.256,8.256L.412,22.928a1.387,1.387,0,0,0,0,1.959l3.708,3.708a1.385,1.385,0,0,0,1.959,0l9.111-9.111.649.649a.448.448,0,1,0,.633-.633l-.9-.9a.438.438,0,0,0-.139-.139l-9.7-9.7,1.2-1.2.742.742a.448.448,0,0,0,.633-.633l-.742-.742,1.2-1.2,4.734,4.734h0L18.5,15.456a.4.4,0,0,0,.088.088l6.642,6.642-1.2,1.2-6.7-6.7-.012-.013L14.639,14l-.014-.012L9.9,9.266a.448.448,0,0,0-.633.633l14.12,14.12-1.2,1.2-4.253-4.254a.448.448,0,1,0-.633.633l4.57,4.57a.452.452,0,0,0,.155.1l5.408,2.1a.726.726,0,0,0,.939-.94l-2.1-5.405a.453.453,0,0,0-.1-.154l-6.686-6.686L28.6,6.071A1.387,1.387,0,0,0,28.6,4.112ZM14.556,18.85l-.878.878L12.63,18.681a.448.448,0,0,0-.633.633l1.048,1.048-1.04,1.04L9.621,19.017a.448.448,0,1,0-.633.633l2.384,2.384-1.04,1.04L9.285,22.026a.448.448,0,0,0-.633.633L9.7,23.706l-1.04,1.04L7.613,23.7a.448.448,0,1,0-.633.633l1.048,1.048-1.04,1.04L4.6,24.034a.448.448,0,1,0-.633.633l2.384,2.384-.91.91a.49.49,0,0,1-.693,0L1.045,24.254a.49.49,0,0,1,0-.693l9.111-9.111ZM1.9,4.928A2.145,2.145,0,0,1,4.933,1.894L6.347,3.309,3.314,6.342ZM6.622,6.616h0L5.1,8.133,3.947,6.975,6.98,3.942,8.138,5.1ZM27.4,27.4l-4.41-1.712,2.7-2.7Z" transform="translate(-0.006 0)"/>
    </g>
  </g>
</svg>
