<svg xmlns="http://www.w3.org/2000/svg" viewBox="6795.5 5780.39 51.352 46.262">
  <defs>
    <style>
      .cls-1, .cls-2 {
        fill: #ccc;
      }

      .cls-1, .cls-5 {
        stroke: #43525b;
      }

      .cls-1, .cls-5, .cls-8 {
        stroke-miterlimit: 10;
        stroke-width: 1.5px;
      }

      .cls-3 {
        fill: #e6e6e6;
      }

      .cls-4 {
        fill: #fff;
      }

      .cls-5, .cls-8 {
        fill: none;
      }

      .cls-6, .cls-7 {
        fill: #fbb03b;
      }

      .cls-7 {
        stroke: #fbb03b;
        font-size: 26px;
        font-family: Helvetica;
      }

      .cls-8 {
        stroke: #ccc;
        stroke-linecap: round;
      }
    </style>
  </defs>
  <g id="Group_7" data-name="Group 7" transform="translate(6556.276 5777.202)">
    <g id="XMLID_2_">
      <g id="Group_5" data-name="Group 5">
        <path id="Path_23" data-name="Path 23" class="cls-1" d="M287.3,45.8h.3a1.58,1.58,0,0,1,1.6,1.6h0v1.3H240.4V47.4h0a1.58,1.58,0,0,1,1.6-1.6h45.3Z"/>
        <path id="Path_24" data-name="Path 24" class="cls-2" d="M276.5,42.9h8l.4.5a.764.764,0,0,1,.2.5v1.2H276V43.9c0-.2.1-.3.2-.5Z"/>
        <path id="Path_25" data-name="Path 25" class="cls-3" d="M284.5,42.9h-8l.6-1.8V22.4h6.8V41.1Z"/>
        <path id="Path_26" data-name="Path 26" class="cls-2" d="M283.9,22.4h-7.2a.684.684,0,0,1-.7-.7V19h9.1v2.7a.684.684,0,0,1-.7.7Z"/>
        <path id="Path_27" data-name="Path 27" class="cls-4" d="M253.1,22.4a.684.684,0,0,0,.7-.7V19H276v2.7a.684.684,0,0,0,.7.7h.4V41l-.6,1.8-.4.5a.764.764,0,0,0-.2.5V45H253.7V43.8c0-.2-.1-.3-.2-.5l-.4-.5-.6-1.8V22.4Z"/>
        <path id="Path_28" data-name="Path 28" class="cls-3" d="M245.2,42.9l.6-1.8V22.4h6.8V41.1l.6,1.8Z"/>
        <path id="Path_29" data-name="Path 29" class="cls-2" d="M253.8,45.1h-9.1V43.9c0-.2.1-.3.2-.5l.4-.5h8l.4.5a.764.764,0,0,1,.2.5Z"/>
        <path id="Path_30" data-name="Path 30" class="cls-2" d="M252.6,22.4h-7.2a.684.684,0,0,1-.7-.7V19h9.1v2.7a.684.684,0,0,1-.7.7Z"/>
        <path id="Path_31" data-name="Path 31" class="cls-2" d="M290.5,16,289,19H241l-1.6-3L265,3.8Zm-43.9,0h36.6L264.9,7.4Z"/>
      </g>
      <g id="Group_6" data-name="Group 6">
        <path id="Path_32" data-name="Path 32" class="cls-5" d="M244.7,19v2.7a.684.684,0,0,0,.7.7h.4V41l-.6,1.8-.4.5a.764.764,0,0,0-.2.5V45"/>
        <path id="Path_33" data-name="Path 33" class="cls-5" d="M253.8,19v2.7a.684.684,0,0,1-.7.7h-.4V41l.6,1.8.4.5a.764.764,0,0,1,.2.5V45"/>
        <path id="Path_34" data-name="Path 34" class="cls-5" d="M243.4,19h44.4a1.781,1.781,0,0,0,1.6-1l.2-.4a1.714,1.714,0,0,0-.8-2.4L265.7,4.1a2.208,2.208,0,0,0-1.6,0L241,15.2a1.714,1.714,0,0,0-.8,2.4l.2.4a1.781,1.781,0,0,0,1.6,1Z"/>
        <path id="Path_35" data-name="Path 35" class="cls-5" d="M285.1,19v2.7a.684.684,0,0,1-.7.7H284V41l.6,1.8.4.5a.764.764,0,0,1,.2.5V45"/>
        <path id="Path_36" data-name="Path 36" class="cls-5" d="M276,19v2.7a.684.684,0,0,0,.7.7h.4V41l-.6,1.8-.4.5a.764.764,0,0,0-.2.5V45"/>
        <path id="Path_37" data-name="Path 37" class="cls-6" d="M266.7,12.5a1.8,1.8,0,1,1-1.8-1.8A1.793,1.793,0,0,1,266.7,12.5Z"/>
      </g>
    </g>
    <text id="_" data-name="€" class="cls-7" transform="matrix(1, 0, 0, 1, 255.151, 40.742)"><tspan x="0" y="0">€</tspan></text>
    <line id="Line_6" data-name="Line 6" class="cls-8" y2="15.2" transform="translate(249.2 24.4)"/>
    <line id="Line_7" data-name="Line 7" class="cls-8" y2="15.2" transform="translate(280.5 24.4)"/>
  </g>
</svg>
