<svg xmlns="http://www.w3.org/2000/svg" viewBox="7205.5 5780.026 44.953 45.453">
  <defs>
    <style>
      .cls-1 {
        fill: #ccebff;
      }

      .cls-2 {
        fill: #d6e3c6;
      }

      .cls-3 {
        fill: #e9e0d6;
      }

      .cls-4 {
        fill: none;
        stroke: #43525b;
        stroke-linecap: round;
        stroke-miterlimit: 10;
        stroke-width: 1.5px;
      }
    </style>
  </defs>
  <g id="Plans_-_copie" transform="translate(6805.276 5775.202)">
    <g id="Group_3" data-name="Group 3">
      <path id="Path_16" data-name="Path 16" class="cls-1" d="M438.6,33.3l-6,16.4-5-1.8c2.2-6-3.8-8.2-3.8-8.2l-2.2,6-5.6-2,3.7-10.1,2.3-6.3Z"/>
      <rect id="Rectangle_1" data-name="Rectangle 1" class="cls-2" width="17.4" height="17.6" transform="translate(422.06 27.266) rotate(-70.001)"/>
      <path id="Path_17" data-name="Path 17" class="cls-3" d="M419.7,33.6l-3.7,10L400.7,38,412.6,5.2l15.3,5.6-6,16.4s-6.5-2.2-8.8,4Z"/>
    </g>
    <g id="XMLID_3_">
      <g id="Group_4" data-name="Group 4">
        <path id="Path_18" data-name="Path 18" class="cls-4" d="M440.1,15.3l3.6,1.3a1.04,1.04,0,0,1,.6,1.3l-5.6,15.5L433,48.8a1.04,1.04,0,0,1-1.3.6l-4-1.5"/>
        <path id="Path_19" data-name="Path 19" class="cls-4" d="M423.2,9.1l4.8,1.8,5.6,2"/>
        <path id="Path_20" data-name="Path 20" class="cls-4" d="M421.7,45.7l-5.6-2-14.4-5.2a1.04,1.04,0,0,1-.6-1.3L412.3,6.3a1.04,1.04,0,0,1,1.3-.6l2.9,1.1"/>
        <line id="Line_5" data-name="Line 5" class="cls-4" x2="10.3" y2="3.7" transform="translate(428.3 29.6)"/>
        <path id="Path_21" data-name="Path 21" class="cls-4" d="M428,10.9l-6,16.4s-6.5-2.2-8.8,4l6.5,2.4-3.7,10"/>
        <path id="Path_22" data-name="Path 22" class="cls-4" d="M427.7,47.9c2.2-6-3.8-8.2-3.8-8.2l-2.2,6"/>
      </g>
    </g>
  </g>
</svg>
