<svg xmlns="http://www.w3.org/2000/svg" viewBox="7004.716 5954.734 46.71 46.527">
  <defs>
    <style>
      .cls-1 {
        fill: #edf9fc;
        stroke: #4d83f6;
      }

      .cls-1, .cls-2, .cls-5, .cls-6 {
        stroke-miterlimit: 10;
        stroke-width: 1.5px;
      }

      .cls-2 {
        fill: #fff;
      }

      .cls-2, .cls-5, .cls-6 {
        stroke: #36497b;
      }

      .cls-3 {
        fill: #4d83f6;
      }

      .cls-4 {
        fill: #69b2f1;
      }

      .cls-5, .cls-6 {
        fill: none;
      }

      .cls-6 {
        stroke-linecap: round;
      }
    </style>
  </defs>
  <g id="Calque_14_-_copie" transform="translate(6523.276 5953.202)">
    <path id="Path_6" data-name="Path 6" class="cls-1" d="M522.8,47.3l-30.7-2.1a2.077,2.077,0,0,1-1.9-2.1L492.7,6a2.077,2.077,0,0,1,2.1-1.9l30.7,2.1a2.077,2.077,0,0,1,1.9,2.1l-2.5,37.2A1.934,1.934,0,0,1,522.8,47.3Z"/>
    <path id="Path_7" data-name="Path 7" class="cls-2" d="M518.4,44.1l-30.7,2.7a2.017,2.017,0,0,1-2.2-1.8L482.2,7.2A2.017,2.017,0,0,1,484,5l30.7-2.7a2.017,2.017,0,0,1,2.2,1.8l3.3,37.8A2.017,2.017,0,0,1,518.4,44.1Z"/>
    <g id="XMLID_4_">
      <g id="Group_1" data-name="Group 1">
        <path id="Path_8" data-name="Path 8" class="cls-3" d="M508,32.2c5.1,1.2,7.3,5,7.7,9.7.2,2.5-3.8,2.9-8.7,3.3,2-2,5.4-6.8.8-12.4A3.933,3.933,0,0,0,508,32.2Z"/>
        <path id="Path_9" data-name="Path 9" class="cls-3" d="M508,32.2a.551.551,0,0,1-.2.5c-.2-.2-.4-.5-.6-.7A2.353,2.353,0,0,1,508,32.2Z"/>
        <path id="Path_10" data-name="Path 10" class="cls-4" d="M507.8,32.7c4.6,5.6,1.2,10.4-.8,12.4-1.1.1-2.3.2-3.5.3-6.3.6-12.8,1.7-13.1-1.4-.4-4.8,1.3-9,6.4-11,.1,1.1,2.7,2.2,5.3,2C504.4,34.8,507.1,33.7,507.8,32.7Z"/>
        <path id="Path_11" data-name="Path 11" class="cls-3" d="M502.2,12.6c3.6.5,5.1,3.4,5.4,7.1.4,4.3-2.4,8-6.1,8.3a6.434,6.434,0,0,1-5.3-2.2c8.8,2.4,12.1-7.8,5.9-13.1Z"/>
        <path id="Path_12" data-name="Path 12" class="cls-3" d="M507.2,32c.2.2.4.5.6.7-.7,1-3.4,2.1-5.6,2.3-2.6.2-5.2-.9-5.3-2a15.954,15.954,0,0,1,5.2-1.1A17.122,17.122,0,0,1,507.2,32Z"/>
        <path id="Path_13" data-name="Path 13" class="cls-4" d="M502.2,12.8c6.2,5.3,2.8,15.5-5.9,13.1a8.524,8.524,0,0,1-2.2-5c-.4-4.3,1-7.9,6.1-8.3a6.7,6.7,0,0,1,2,0Z"/>
      </g>
      <g id="Group_2" data-name="Group 2">
        <path id="Path_14" data-name="Path 14" class="cls-5" d="M502.2,12.6c3.6.5,5.1,3.4,5.4,7.1.4,4.3-2.4,8-6.1,8.3a6.434,6.434,0,0,1-5.3-2.2,8.524,8.524,0,0,1-2.2-5c-.4-4.3,1-7.9,6.1-8.3C500.9,12.5,501.6,12.6,502.2,12.6Z"/>
        <path id="Path_15" data-name="Path 15" class="cls-5" d="M508,32.2c5.1,1.2,7.3,5,7.7,9.7.2,2.5-3.8,2.9-8.7,3.3-1.1.1-2.3.2-3.5.3-6.3.6-12.8,1.7-13.1-1.4-.4-4.8,1.3-9,6.4-11A15.954,15.954,0,0,1,502,32a16.9,16.9,0,0,1,5.1.2A.951.951,0,0,1,508,32.2Z"/>
      </g>
    </g>
    <line id="Line_4" data-name="Line 4" class="cls-6" y1="1" x2="12.2" transform="translate(493.6 7.2)"/>
  </g>
</svg>
