<svg xmlns="http://www.w3.org/2000/svg" viewBox="6793.233 5960.652 46.487 46.5">
  <defs>
    <style>
      .cls-1 {
        fill: #fff;
      }

      .cls-1, .cls-6 {
        stroke: #43525b;
      }

      .cls-1, .cls-2, .cls-3, .cls-5, .cls-6 {
        stroke-miterlimit: 10;
        stroke-width: 1.5px;
      }

      .cls-2 {
        fill: #e97956;
        stroke: #801831;
      }

      .cls-2, .cls-3, .cls-6 {
        stroke-linejoin: round;
      }

      .cls-3 {
        fill: #c69c6d;
        stroke: #754c24;
      }

      .cls-4 {
        fill: #754c24;
      }

      .cls-5 {
        fill: #69b2f1;
        stroke: #0071bc;
      }

      .cls-6 {
        fill: none;
      }
    </style>
  </defs>
  <g id="Projet_1_" transform="translate(6793.276 5955.202)">
    <path id="Path_53" data-name="Path 53" class="cls-1" d="M39.7,17H6.5a2.946,2.946,0,0,0-3,3V48.2a3.009,3.009,0,0,0,3,3H39.7a3.009,3.009,0,0,0,3-3V20A2.946,2.946,0,0,0,39.7,17Z"/>
    <path id="Path_54" data-name="Path 54" class="cls-2" d="M45.5,22.6,37.2,7.8a2.106,2.106,0,0,0-2-1.6h-24a2.3,2.3,0,0,0-2,1.6L.9,22.6c-.6,1.7.4,3.7,2,3.7H43.5C45.1,26.3,46.1,24.3,45.5,22.6Z"/>
    <g id="Group_11" data-name="Group 11">
      <path id="Path_55" data-name="Path 55" class="cls-3" d="M20.5,51.2H9.1V34.6a.472.472,0,0,1,.5-.5H20a.472.472,0,0,1,.5.5Z"/>
      <path id="Path_56" data-name="Path 56" class="cls-4" d="M12.3,43a.9.9,0,1,1-.9-.9.9.9,0,0,1,.9.9"/>
    </g>
    <g id="Group_12" data-name="Group 12">
      <path id="Path_57" data-name="Path 57" class="cls-5" d="M35.4,45.3H26.9A1.324,1.324,0,0,1,25.6,44V35.5a1.324,1.324,0,0,1,1.3-1.3h8.5a1.324,1.324,0,0,1,1.3,1.3V44A1.324,1.324,0,0,1,35.4,45.3Z"/>
      <line id="Line_11" data-name="Line 11" class="cls-5" y2="11.2" transform="translate(31.1 34.1)"/>
      <line id="Line_12" data-name="Line 12" class="cls-5" x2="11.2" transform="translate(25.5 39.7)"/>
    </g>
    <line id="Line_13" data-name="Line 13" class="cls-6" x1="16.6" transform="translate(6.5 51.2)"/>
  </g>
</svg>
