<svg xmlns="http://www.w3.org/2000/svg" viewBox="7191.126 5954.367 54.147 46.621">
  <defs>
    <style>
      .cls-1 {
        fill: #fbdb00;
        stroke: #7e570c;
        stroke-miterlimit: 10;
        stroke-width: 1.5px;
      }
    </style>
  </defs>
  <path id="Path_1" data-name="Path 1" class="cls-1" d="M586.6,7.8c-3.7-.9-18.4-1.5-24.2,21.6l5,.6c-9.1-2.6-10.6,4.8-10.8,6.7,0,.3.1.5.3.5l25.5,6.4L608,50c.2.1.4-.1.5-.3.7-1.8,2.9-9-6.4-11l4.7,1.8c5.8-23.1-7.5-29.5-11.1-30.4L591,28.5l4.7-18.6a3.126,3.126,0,0,0-2-4L592,5.5,590.2,5a3.1,3.1,0,0,0-3.6,2.6l-4.7,18.6" transform="translate(6635.276 5950.202)"/>
</svg>
